<svg xmlns="http://www.w3.org/2000/svg" xmlns:xlink="http://www.w3.org/1999/xlink" viewBox="0 0 500 500"><defs><clipPath id="freepik--clip-path--inject-71"><path d="M356.74,249.37H338.53a3.15,3.15,0,0,0-3.15,3.15v4.19a3.15,3.15,0,0,0,3.15,3.15h6.75l2.36,4.08,2.35-4.08h6.75a3.15,3.15,0,0,0,3.15-3.15v-4.19A3.15,3.15,0,0,0,356.74,249.37Z" style="fill:#168833;stroke:#263238;stroke-linecap:round;stroke-linejoin:round;stroke-width:1.1668926417879113px"></path></clipPath><clipPath id="freepik--clip-path-2--inject-71"><path d="M315.79,271.12h-18.2a3.15,3.15,0,0,0-3.15,3.14v4.2a3.15,3.15,0,0,0,3.15,3.14h6.74l2.36,4.08,2.36-4.08h6.74a3.15,3.15,0,0,0,3.15-3.14v-4.2A3.15,3.15,0,0,0,315.79,271.12Z" style="fill:#168833;stroke:#263238;stroke-linecap:round;stroke-linejoin:round;stroke-width:1.1668926417879113px"></path></clipPath><clipPath id="freepik--clip-path-3--inject-71"><path d="M396.65,231.9H378.44a3.15,3.15,0,0,0-3.15,3.15v4.19a3.14,3.14,0,0,0,3.15,3.14h6.75l2.35,4.08,2.36-4.08h6.75a3.14,3.14,0,0,0,3.15-3.14v-4.19A3.15,3.15,0,0,0,396.65,231.9Z" style="fill:#168833;stroke:#263238;stroke-linecap:round;stroke-linejoin:round;stroke-width:1.1668926417879113px"></path></clipPath><clipPath id="freepik--clip-path-4--inject-71"><path d="M435,249.1h-18.2a3.15,3.15,0,0,0-3.15,3.15v4.19a3.14,3.14,0,0,0,3.15,3.14h6.74l2.36,4.08,2.36-4.08H435a3.15,3.15,0,0,0,3.16-3.14v-4.19A3.16,3.16,0,0,0,435,249.1Z" style="fill:#168833;stroke:#263238;stroke-linecap:round;stroke-linejoin:round;stroke-width:1.1668926417879113px"></path></clipPath><clipPath id="freepik--clip-path-5--inject-71"><path d="M224.67,288.6s.66,12.64,1.33,15.95,3.34,15.13,4.35,25.57a85.42,85.42,0,0,0,3,16s8.09,31.42,8.57-8.05c.17-13.92-1.33-35.8-1.33-35.8l.66-6.63" style="fill:#fff;stroke:#263238;stroke-linecap:round;stroke-linejoin:round;stroke-width:0.9698569847588134px"></path></clipPath><clipPath id="freepik--clip-path-6--inject-71"><path d="M224.83,294.83s-6.8,1.43-9.13,6.74-2.65,17.57-2.32,20.88a57.81,57.81,0,0,1,0,8l9.3-3" style="fill:#fff;stroke:#263238;stroke-linecap:round;stroke-linejoin:round;stroke-width:0.9698569847588134px"></path></clipPath><clipPath id="freepik--clip-path-7--inject-71"><path d="M213.05,312.18s-21.92,12.26-22.92,14.25-21.58,64-21.91,68.29,16.27,20.55,16.27,20.55" style="fill:none;stroke:#263238;stroke-linecap:round;stroke-linejoin:round;stroke-width:0.9698569847588134px"></path></clipPath><clipPath id="freepik--clip-path-8--inject-71"><path d="M220.68,234.94s-9.63,5.63-10.29,13.92a51.24,51.24,0,0,0,1.66,16.24s-3-2.65-3.32,3.32,4.65,10.6,6.64,10.6h2s4.43,9.1,9.75,13.41,10.51,4.5,14.16,3.17,10.63-7.29,11.3-15.25,0-21.22-.67-29.5-2.32-14.26-11.29-17.24S225.33,232.61,220.68,234.94Z" style="fill:#fff;stroke:#263238;stroke-linecap:round;stroke-linejoin:round;stroke-width:0.9698569847588134px"></path></clipPath></defs><g id="freepik--background-simple--inject-71"><path d="M417.48,91.69s-24.21-44.8-76.09-47.41-70.34,50.51-108.14,71c-19.79,10.74-59.81-7.24-80.92-1.09C84.84,133.88,60.75,224,89.79,271.59c25.13,41.26,68.48,60.19,134,59.93s111.54,2,169.46-45.34S445.84,150.88,417.48,91.69Z" style="fill:#168833"></path><path d="M417.48,91.69s-24.21-44.8-76.09-47.41-70.34,50.51-108.14,71c-19.79,10.74-59.81-7.24-80.92-1.09C84.84,133.88,60.75,224,89.79,271.59c25.13,41.26,68.48,60.19,134,59.93s111.54,2,169.46-45.34S445.84,150.88,417.48,91.69Z" style="fill:#fff;opacity:0.800000011920929;isolation:isolate"></path></g></svg>