<svg xmlns="http://www.w3.org/2000/svg" viewBox="0 0 500 500"><g id="freepik--background-complete--inject-469"><path d="M92.86,280.67l-13.12.27-6.66.12c-2.23,0-4.46,0-6.7.05h-.44v-.44l-.06-11.19V269h.5l13.24.06c4.42,0,8.83.11,13.24.16h.28v.27c0,1.89-.09,3.78-.13,5.65Zm0,0L92.72,275c0-1.86-.11-3.7-.13-5.53l.27.27c-4.41.05-8.82.16-13.24.16L66.38,270l.5-.5,0,11.19-.45-.45c2.19,0,4.36,0,6.55,0l6.58.12Z" style="fill:#ebebeb"></path><path d="M78.09,294.78,65,295.05l-6.66.12c-2.23,0-4.47,0-6.7.05h-.44v-.44l-.06-11.19v-.51h.5l13.24.06c4.42,0,8.83.11,13.24.16h.28v.27c0,1.89-.09,3.78-.14,5.65Zm0,0L78,289.12c0-1.86-.11-3.7-.13-5.53l.27.27c-4.41.05-8.82.16-13.24.16l-13.24.06.5-.49,0,11.19-.45-.45c2.18,0,4.36,0,6.55.05l6.58.12Z" style="fill:#ebebeb"></path><path d="M390.86,366.85l-13.13.28-6.66.11c-2.22.05-4.46,0-6.69.05h-.45v-.45l-.05-11.19v-.5h.5l13.24.06c4.41,0,8.82.11,13.24.16h.27v.27c0,1.9-.09,3.78-.13,5.65Zm0,0-.14-5.66c-.05-1.86-.12-3.7-.14-5.53l.28.27c-4.42.05-8.83.16-13.24.16l-13.24.07.5-.5-.06,11.19-.44-.45c2.18,0,4.35,0,6.54.06l6.58.11Z" style="fill:#ebebeb"></path><path d="M376.09,381l-13.13.28-6.66.11c-2.23,0-4.46,0-6.69,0h-.45V381l-.05-11.19v-.5h.51l13.24.06c4.41,0,8.82.11,13.24.16h.27v.27c0,1.9-.09,3.78-.13,5.65Zm0,0-.15-5.66c0-1.86-.11-3.7-.13-5.53l.28.27c-4.42,0-8.83.16-13.24.16l-13.24.07.49-.5L350.05,381l-.44-.45c2.18,0,4.35,0,6.54.06l6.58.11Z" style="fill:#ebebeb"></path><path d="M406.27,381l-13.12.28-6.67.11c-2.22,0-4.46,0-6.69,0h-.44V381l0-11.19v-.5h.5l13.24.06c4.41,0,8.83.11,13.24.16h.28v.27c0,1.9-.08,3.78-.13,5.65Zm0,0-.14-5.66c-.05-1.86-.11-3.7-.13-5.53l.27.27c-4.41,0-8.83.16-13.24.16l-13.24.07.5-.5L380.23,381l-.44-.45c2.18,0,4.36,0,6.54.06l6.58.11Z" style="fill:#ebebeb"></path><path d="M448.39,259.61l-13.13.28-6.66.11c-2.22,0-4.46,0-6.69.05h-.45v-.45l0-11.19v-.5h.5l13.24.06c4.41,0,8.82.11,13.24.16h.27v.27c0,1.9-.09,3.78-.13,5.65Zm0,0-.14-5.66c-.05-1.86-.12-3.7-.14-5.53l.28.27c-4.42.05-8.83.16-13.24.16l-13.24.07.5-.5-.06,11.19-.44-.45c2.18,0,4.36,0,6.54.06l6.58.11Z" style="fill:#ebebeb"></path><path d="M433.62,61.14l-13.13.28-6.66.11c-2.23,0-4.46,0-6.69.06h-.45v-.45L406.64,50v-.5h.51l13.24.06c4.41,0,8.82.12,13.24.17h.27V50c0,1.9-.09,3.79-.13,5.66Zm0,0-.15-5.65c0-1.87-.11-3.71-.13-5.54l.28.27c-4.42.06-8.83.16-13.24.17l-13.24.06.49-.5-.05,11.19-.44-.44c2.18,0,4.35,0,6.54,0l6.58.11Z" style="fill:#ebebeb"></path><path d="M448.39,75.25l-13.13.28-6.66.11c-2.22,0-4.46,0-6.69.06h-.45v-.45l0-11.19v-.5h.5l13.24.06c4.41,0,8.82.12,13.24.17h.27v.27c0,1.9-.09,3.79-.13,5.66Zm0,0-.14-5.65c-.05-1.87-.12-3.71-.14-5.54l.28.27c-4.42.06-8.83.16-13.24.17l-13.24.06.5-.5-.06,11.19-.44-.44c2.18,0,4.36,0,6.54,0L435,75Z" style="fill:#ebebeb"></path><path d="M82.32,61.14l-13.12.28-6.66.11c-2.23,0-4.47,0-6.7.06H55.4v-.45L55.34,50v-.5h.5l13.24.06c4.42,0,8.83.12,13.24.17h.28V50c0,1.9-.09,3.79-.14,5.66Zm0,0-.14-5.65c0-1.87-.11-3.71-.13-5.54l.27.27c-4.41.06-8.82.16-13.24.17l-13.24.06.5-.5-.05,11.19-.45-.44c2.18,0,4.36,0,6.55,0l6.58.11Z" style="fill:#ebebeb"></path><path d="M153.37,197.46l-13.12.28-6.66.11c-2.23.05-4.47,0-6.7.06h-.44v-.45l-.06-11.19v-.5h.5l13.24.07c4.42,0,8.83.11,13.24.16h.28v.27c0,1.9-.08,3.79-.13,5.66Zm0,0-.14-5.65c0-1.86-.11-3.71-.13-5.54l.27.28c-4.41,0-8.82.15-13.24.16l-13.24.06.5-.5,0,11.19-.45-.44c2.18,0,4.36,0,6.55,0l6.58.11Z" style="fill:#ebebeb"></path><path d="M360.85,228a22.87,22.87,0,0,0,5.71,4.5,23.3,23.3,0,1,0-5.71-4.5Z" style="fill:#ebebeb"></path><path d="M371.8,207.72a7.08,7.08,0,1,0,8.71-4.93A7.08,7.08,0,0,0,371.8,207.72Z" style="fill:#fff"></path><path d="M361.62,225.17l-.77,2.81a22.87,22.87,0,0,0,5.71,4.5,23.17,23.17,0,0,0,17.87,2l.77-2.81a12.23,12.23,0,1,0-23.58-6.52Z" style="fill:#fff"></path><circle cx="119.7" cy="82.71" r="24.65" transform="translate(-21.21 46.48) rotate(-20.22)" style="fill:#ebebeb"></circle><path d="M132.6,81.53c-1.08,8.31-8,15.41-8,15.41s-9.83-1.34-15.79-7.23c-5-4.92-5.31-12-1.16-14.95,6-4.29,11.62,6.68,11.62,6.68S117,69.3,124.33,69C129.44,68.83,133.5,74.6,132.6,81.53Z" style="fill:#fff"></path><g id="freepik--xsrjP0--inject-469"><path d="M87.69,239.11c-.94-.32-1.83-.9-2.9-.53-.41.14-.4-.23-.46-.46l-2.94-12.36a.69.69,0,0,1,.18-.8c2.77-2.33,3.39-5.78,4.69-8.9a12.69,12.69,0,0,0,.06-9.9,1.26,1.26,0,0,1,.78-1.8,2.11,2.11,0,0,1,2.52.18,16.79,16.79,0,0,1,3.08,5c.56,1.52.36,3.17.53,4.76.12,1.17.12,2.35.18,3.55.33.13.62-.05.92-.11l10.45-2.48c1.47-.35,2.28-.09,2.72.83a2.87,2.87,0,0,1-.8,3.38c-.23.19-.73.19-.67.6s.55.27.83.38c1.46.56,1.65,2.4.44,3.78-.29.33-1,.38-.9.89s.73.26,1.08.48c1.26.77,1.2,2.76-.14,3.88-.17.15-.41.22-.56.38s-.28.33.11.49c1.77.72,2.09,2.23.83,3.68l-.38.43a3,3,0,0,1-1.74.84q-8.17,2-16.38,3.89A2,2,0,0,1,87.69,239.11Z" style="fill:#ebebeb;fill-rule:evenodd"></path><path d="M70.44,235.52c-.62-2.61-1.23-5.24-1.88-7.85-.13-.53-.13-.81.52-.95q4.82-1.08,9.58-2.27c.63-.16.78,0,.91.59q1.84,7.92,3.75,15.81c.16.67,0,.9-.65,1.05-3.11.7-6.21,1.43-9.29,2.21-.77.2-.94-.05-1.09-.72C71.7,240.76,71.06,238.15,70.44,235.52Z" style="fill:#ebebeb;fill-rule:evenodd"></path></g><g id="freepik--xsrjp0--inject-469"><path d="M408.13,296.86c-.5-.62-.86-1.4-1.74-1.61-.34-.08-.18-.33-.12-.51q1.67-4.83,3.32-9.67c.08-.23.16-.42.46-.46,2.88-.39,4.79-2.47,7-4a10.17,10.17,0,0,0,4.3-6.69c.14-.76.59-1,1.3-.9a1.72,1.72,0,0,1,1.64,1.21,13.79,13.79,0,0,1-.05,4.71,15.84,15.84,0,0,1-1.69,3.46c-.42.85-.92,1.65-1.4,2.49.16.23.44.24.67.32L430,288c1.14.39,1.59.91,1.49,1.73a2.31,2.31,0,0,1-2,2c-.24,0-.58-.19-.71.12s.25.42.39.61c.76,1,.1,2.35-1.32,2.76-.34.1-.84-.17-1,.23s.38.48.53.79a2,2,0,0,1-1.77,2.57,3.21,3.21,0,0,0-.54,0c-.17.05-.34.1-.14.38a1.69,1.69,0,0,1-1,2.85l-.44.14A2.4,2.4,0,0,1,422,302l-12.8-4.39A1.63,1.63,0,0,1,408.13,296.86Z" style="fill:#ebebeb;fill-rule:evenodd"></path><path d="M398,287c.7-2.05,1.41-4.09,2.1-6.14.14-.42.25-.61.76-.43,2.49.89,5,1.74,7.49,2.57.49.17.51.36.35.79q-2.13,6.18-4.24,12.36c-.17.53-.37.63-.89.44-2.41-.86-4.83-1.7-7.26-2.49-.61-.2-.62-.44-.43-1C396.56,291.11,397.24,289.06,398,287Z" style="fill:#ebebeb;fill-rule:evenodd"></path></g><rect x="387.67" y="135.88" width="52.4" height="52.4" style="fill:#fff"></rect><path d="M442.8,133.15H385V191H442.8Zm-55.13,55.13v-52.4h52.4v52.4Z" style="fill:#dbdbdb"></path><rect x="397.82" y="143.67" width="18.11" height="40.84" transform="translate(813.75 328.18) rotate(180)" style="fill:#ebebeb"></rect><rect x="403.41" y="151.62" width="20.93" height="20.93" transform="translate(827.74 324.16) rotate(180)" style="fill:#c7c7c7"></rect><rect x="412.76" y="163.2" width="2.23" height="57.85" transform="translate(606 -221.75) rotate(90)" style="fill:#c7c7c7"></rect><rect x="387.67" y="62.13" width="52.4" height="52.4" style="fill:#fff"></rect><rect x="392.16" y="71.13" width="39.52" height="13.68" style="fill:#c7c7c7"></rect><path d="M442.8,59.4H385v57.85H442.8Zm-55.13,55.12V62.12h52.4v52.4Z" style="fill:#dbdbdb"></path><rect x="403.41" y="77.86" width="20.92" height="20.92" style="fill:#ebebeb"></rect><rect x="412.76" y="89.44" width="2.23" height="57.85" transform="translate(532.24 -295.5) rotate(90)" style="fill:#c7c7c7"></rect><rect x="387.67" y="211.14" width="52.4" height="52.4" style="fill:#fff"></rect><rect x="415.74" y="216.95" width="17.19" height="28.75" style="fill:#ebebeb"></rect><path d="M442.8,208.41H385v57.85H442.8Zm-55.13,55.13v-52.4h52.4v52.4Z" style="fill:#dbdbdb"></path><rect x="403.41" y="226.88" width="20.92" height="20.92" style="fill:#c7c7c7"></rect><rect x="412.76" y="238.46" width="2.23" height="57.85" transform="translate(681.26 -146.49) rotate(90)" style="fill:#c7c7c7"></rect></g><g id="freepik--Plant--inject-469"><path d="M405.35,288.19s-22.54-3.15-17.27-30.37C388.08,257.82,413.27,263.48,405.35,288.19Z" style="fill:#367917"></path><path d="M405.35,288.19s-22.54-3.15-17.27-30.37C388.08,257.82,413.27,263.48,405.35,288.19Z" style="opacity:0.1"></path><path d="M404.21,282.51c-.44-1.37-1-2.73-1.53-4.05,0-.18-.05-.35-.06-.52l-.09-1.12c-.07-.81-.12-1.63-.17-2.44-.09-1.62-.2-3.25-.22-4.88a.07.07,0,0,0-.14,0c0,1.63,0,3.26,0,4.89,0,.81.07,1.62.13,2.44,0,.18,0,.36,0,.54a48.51,48.51,0,0,0-4.52-7.73c-.78-1.08-1.59-2.12-2.47-3.13s-1.85-2-2.76-3c-.05-.07-.15,0-.09.1a39.94,39.94,0,0,1,4.34,5.77c.69,1,1.34,2.1,1.95,3.19l-.21-.09-.8-.32-1.84-.7c-1.21-.45-2.42-.89-3.63-1.35-.07,0-.12.1-.05.13,1.2.48,2.39,1,3.57,1.49l1.75.76.88.36a2.51,2.51,0,0,0,.6.21c.45.82.9,1.64,1.32,2.47A58.87,58.87,0,0,1,403,282c.06.15.11.31.16.46a13.53,13.53,0,0,0-1.84-.89L399,280.52c-1.58-.73-3.15-1.46-4.67-2.32-.07,0-.14.08-.06.12,1.55.85,3.07,1.75,4.62,2.59.77.42,1.55.83,2.35,1.21a7.14,7.14,0,0,0,2.11.85,26.46,26.46,0,0,1,1.48,6.4c.25,3.07.23,6.18.3,9.26a0,0,0,1,0,.08,0c.22-2.8.35-5.62.36-8.43A24.33,24.33,0,0,0,404.21,282.51Z" style="fill:#263238"></path><path d="M400.74,266.51a27.48,27.48,0,0,0-.22,4.8s.06,0,.07,0c.09-1.6.1-3.18.29-4.77C400.89,266.45,400.75,266.42,400.74,266.51Z" style="fill:#263238"></path><path d="M394.3,267.87a17.31,17.31,0,0,1-2.9-1.42.07.07,0,1,0-.07.12,11.29,11.29,0,0,0,2.93,1.4C394.31,268,394.35,267.89,394.3,267.87Z" style="fill:#263238"></path><path d="M406.07,331.4c0-2.49-.06-5-.09-7.47-.05-8.28-.12-16.55-.27-24.82q-.16-9.86-.45-19.7a.15.15,0,0,0-.06-.09l0-5.38s-.05-.07-.11-.07-.11,0-.11.07l0,5.39a.1.1,0,0,0-.05.08c-.33,11.69-.63,23.38-.7,35.07,0,2.38,0,4.76,0,7.14q-.12,11.43-.09,22.86c0,1.22,0,2.43,0,3.64,0,7,.07,13.95.07,20.93,0,.37.42.56.86.58s1-.19,1-.61c0-7.69.06-15.39.06-23.08C406.09,341.1,406.11,336.25,406.07,331.4Z" style="fill:#263238"></path><path d="M396.66,323.83s-10.85-8-21.14-2.6-11.9,26.35-11.9,26.35,15.11,2.16,24.63-6.9C397.42,332,396.66,323.83,396.66,323.83Z" style="fill:#367917"></path><path d="M399.61,324.33a12.88,12.88,0,0,0-6.28-.82,8.44,8.44,0,0,0-1.33-.13l-1.53-.12-3.16-.22c-2.14-.16-4.28-.29-6.42-.51-.07,0-.09.13,0,.14,2.11.27,4.21.57,6.33.79,1.09.11,2.18.22,3.28.3.25,0,.52,0,.79.07-.32.08-.65.15-1,.24a25.52,25.52,0,0,0-4.92,2c-.85.15-1.7.39-2.54.59-1.34.31-2.68.66-4,1-2.63.69-5.24,1.47-7.85,2.23-.09,0-.05.15,0,.13,2.61-.64,5.24-1.23,7.85-1.85,1.27-.3,2.55-.6,3.81-.92l1-.23a32,32,0,0,0-7.71,6.71,42,42,0,0,0-5.35,8.44c0,.08.07.16.11.08a41.07,41.07,0,0,1,6.49-8.51l-.15.43-.6,1.92c-.4,1.27-.81,2.55-1.19,3.83a.07.07,0,0,0,.14,0c.45-1.24.89-2.49,1.32-3.73l.65-1.83c.11-.32.22-.64.32-1,0-.1.07-.2.11-.29a38.26,38.26,0,0,1,3.84-3.28,28.84,28.84,0,0,1,5.76-3.3c0,.19-.07.37-.11.55-.11.5-.22,1-.32,1.49-.21,1-.41,2.05-.61,3.08-.41,2.1-.66,4.22-1.06,6.32,0,.09.12.12.14,0,.48-2.11,1.11-4.19,1.58-6.31.24-1.05.47-2.11.69-3.17.11-.5.2-1,.31-1.49.05-.28.12-.55.15-.83.19-.08.39-.17.59-.24a17.05,17.05,0,0,1,9-1.24,8.9,8.9,0,0,1,6.53,5.23c.09.24.47.09.41-.15A8.35,8.35,0,0,0,399.61,324.33Z" style="fill:#263238"></path><path d="M383,333.26c-.3,1.38-.61,2.75-.91,4.13a30.16,30.16,0,0,0-.76,4c0,.05.07.05.09,0a31.45,31.45,0,0,0,.92-4c.27-1.36.53-2.72.8-4.07C383.16,333.21,383,333.18,383,333.26Z" style="fill:#263238"></path><path d="M372.53,336.76c-1.39.7-2.72,1.49-4.17,2.07-.09,0,0,.17.06.12a42.62,42.62,0,0,0,4.14-2.14S372.56,336.74,372.53,336.76Z" style="fill:#263238"></path><path d="M399.1,309.08s-13.26.84-19.42-7.9S374.9,280,374.9,280s13.92,1.7,19.45,8S399.1,309.08,399.1,309.08Z" style="fill:#367917"></path><path d="M405.32,322.15c-.46-1.42-1-2.81-1.57-4.21s-1.06-2.66-1.65-4a81.79,81.79,0,0,0-4-7.81c-.93-1.61-1.94-3.17-3-4.71,0-.23-.07-.47-.1-.71-.06-.41-.12-.82-.19-1.23-.13-.84-.27-1.67-.41-2.51-.31-1.83-.69-3.65-1-5.48,0-.09-.15-.08-.14,0,.27,1.81.45,3.63.71,5.44.12.89.24,1.78.37,2.67l.15,1a94.18,94.18,0,0,0-6.55-8.5c-.32-.37-.65-.73-1-1.09,0-.1-.08-.2-.12-.3s-.2-.51-.29-.76c-.2-.52-.39-1.05-.58-1.58-.37-1-.7-2.08-1-3.15a.07.07,0,1,0-.13,0c.26,1.09.55,2.17.86,3.25.16.52.33,1,.51,1.54l.09.25c-1.69-1.84-3.46-3.62-5.24-5.38-.06-.06-.16,0-.1.1a94.3,94.3,0,0,1,9.4,11.5c-.33-.1-.66-.18-1-.25-1-.2-2.05-.34-3.08-.47-2.16-.28-4.31-.55-6.46-.89a.07.07,0,0,0,0,.14c2,.4,4.09.86,6.13,1.33,1,.22,1.92.41,2.89.6a18.3,18.3,0,0,1,2.33.67c.21.3.44.6.65.91,1,1.42,1.9,2.86,2.82,4.32l-1.36-.27c-1-.2-2.05-.38-3.08-.55-2-.33-4-.68-6-1.14-.08,0-.12.12,0,.14,2,.47,4,1,6,1.56,1,.26,1.94.5,2.92.71l1.48.32a2.7,2.7,0,0,0,.59.1q2.91,4.71,5.44,9.64,1.11,2.16,2.14,4.36c.71,1.5,1.31,3,2,4.57C404.94,322.61,405.42,322.49,405.32,322.15Z" style="fill:#263238"></path><path d="M391.75,291.7c-.25-1.27-.52-2.53-.8-3.79,0-.08-.15,0-.13,0,.25,1.24.49,2.49.71,3.73s.41,2.51.76,3.72c0,0,0,0,0,0A27,27,0,0,0,391.75,291.7Z" style="fill:#263238"></path><path d="M384,291.33c-.62-.31-1.26-.56-1.9-.81l-1-.39-.51-.2a2.58,2.58,0,0,1-.56-.25c-.1-.07-.17.1-.07.12a2.35,2.35,0,0,1,.57.23l.5.22,1,.44a19.43,19.43,0,0,0,2,.77C384.05,291.48,384.09,291.36,384,291.33Z" style="fill:#263238"></path><path d="M412.66,298.66s8-15,20.23-17.31,19.67,10.24,19.67,10.24-8.9,11.37-20.1,13.35S412.66,298.66,412.66,298.66Z" style="fill:#367917"></path><path d="M441.06,288.07a33.37,33.37,0,0,0-9.57.11l.55-.29,2.7-1.39a63.15,63.15,0,0,1,5.73-2.8.07.07,0,1,0-.05-.13c-1.91.89-3.89,1.64-5.81,2.52-.95.44-1.89.9-2.83,1.39-.6.32-1.27.62-1.86,1a33.94,33.94,0,0,0-7.75,2.58l1.52-1.66c1.14-1.25,2.26-2.55,3.51-3.69.06-.06,0-.15-.1-.09-1.28,1.16-2.63,2.23-3.86,3.44-.61.58-1.18,1.19-1.74,1.81-.28.31-.56.63-.83,1a32.63,32.63,0,0,0-12.79,12.5,32.25,32.25,0,0,0-3.56,9.59.07.07,0,0,0,.13,0,36.78,36.78,0,0,1,9-15.18,35.35,35.35,0,0,1,16.34-9.46,36.07,36.07,0,0,1,11.29-1C441.2,288.32,441.21,288.09,441.06,288.07Z" style="fill:#263238"></path><path d="M452.56,291.59s-8.9,11.37-20.11,13.35c-8.54,1.51-15.56-2.94-18.42-5.13l-.61-1s5.77-4.87,16.7-7.67S452.56,291.59,452.56,291.59Z" style="opacity:0.1"></path><path d="M434,282.73a27,27,0,0,0-2.71,1.79,17.16,17.16,0,0,0-2.36,2.15c-.06.07,0,.16.11.1.81-.7,1.62-1.41,2.46-2.07a25.8,25.8,0,0,1,2.57-1.86C434.12,282.8,434.05,282.68,434,282.73Z" style="fill:#263238"></path><path d="M440.67,285.26c-.45.19-.91.35-1.36.54l-1.36.57c-.1,0-.05.19.05.15l1.36-.55,1.35-.57C440.79,285.36,440.75,285.23,440.67,285.26Z" style="fill:#263238"></path><path d="M411.06,317.51s2.14,14.86,13.32,20.06,24.8,0,24.8,0S443.82,305.42,411.06,317.51Z" style="fill:#367917"></path><path d="M441.48,327.91c-1-.12-2.06-.3-3.08-.48l-1.5-.29c-.25-.05-.52-.11-.78-.15-.3-.29-.6-.57-.91-.84a44.9,44.9,0,0,0-6.83-5,38.59,38.59,0,0,0-4.1-2.1h.21l3.68.16c2.45.11,4.91.16,7.36.32.09,0,.08-.13,0-.13-2.46-.17-4.9-.44-7.36-.65l-3.58-.32-1.84-.16-.47-.05c-.64-.24-1.28-.46-1.93-.67a17.5,17.5,0,0,0-9.46-.52c-2.82.72-5.62,2.56-6.35,5.53,0,.1.14.17.18.07,1.05-2.48,3.8-3.73,6.28-4.24a14.82,14.82,0,0,1,5.06-.1,12.77,12.77,0,0,0,.56,2.25l.93,3.13c.64,2.09,1.34,4.16,1.95,6.25a.07.07,0,0,0,.14,0c-.52-2.08-1-4.19-1.46-6.28-.25-1-.51-2-.76-3.07a17.59,17.59,0,0,0-.57-2.12,27.23,27.23,0,0,1,2.9.69,42.77,42.77,0,0,1,5.07,1.85c.16,1.06.4,2.11.64,3.16.31,1.31.65,2.61,1.06,3.89a.07.07,0,0,0,.13,0c0-.08,0-.16-.05-.24h0c-.25-1.22-.52-2.43-.78-3.64-.21-1-.39-2-.61-2.94a44.52,44.52,0,0,1,4.08,2.06c0,.3.1.61.14.89.08.51.17,1,.27,1.52.21,1.15.44,2.29.71,3.43a53.81,53.81,0,0,0,1.92,6.46s0,.06,0,.08l.07.08c.05.06.12,0,.11-.07-.52-2.2-1.11-4.39-1.59-6.6-.24-1.1-.49-2.2-.71-3.31-.11-.56-.21-1.11-.32-1.67,0-.15-.05-.32-.07-.49a44.43,44.43,0,0,1,4.35,2.9,46.8,46.8,0,0,1,6.66,6.08c.08.09.24,0,.16-.13a41.39,41.39,0,0,0-2.66-3.25c-.56-.61-1.14-1.19-1.74-1.76l.19,0,1.57.23c1,.14,2.07.24,3.11.36C441.53,328.05,441.57,327.92,441.48,327.91Z" style="fill:#263238"></path><path d="M433.63,332.94h0c0-.12,0-.25-.07-.38s-.11-.32-.13-.49h0c-.23-1-.42-2-.6-3,0-.07-.12-.05-.12,0a12.05,12.05,0,0,0,.85,3.88s.08,0,.08,0Z" style="fill:#263238"></path><path d="M424.27,332.71s0-.06-.06-.07c-.32-1.31-.62-2.63-.89-4-.14-.69-.29-1.39-.42-2.09l-.21-1.12a3.45,3.45,0,0,0-.24-1,.07.07,0,0,0-.13,0,6.79,6.79,0,0,0,.28,2c.14.73.28,1.45.44,2.17.32,1.47.69,2.93,1.11,4.37,0,.08.15.07.14,0S424.28,332.81,424.27,332.71Z" style="fill:#263238"></path><path d="M440.46,323.62c-2-.27-4.08-.57-6.13-.82-.08,0-.12.12,0,.14,2,.3,4.08.55,6.13.82C440.51,323.77,440.55,323.64,440.46,323.62Z" style="fill:#263238"></path><path d="M405.33,282.66s-6.83-30,25.4-42.15C430.73,240.51,439.66,280,405.33,282.66Z" style="fill:#367917"></path><path d="M412.29,265.64l.35-.21,1.82-1,3.74-2.09c2.46-1.38,4.89-2.81,7.37-4.15.07-.05,0-.16-.08-.12-2.48,1.35-5,2.61-7.5,3.93l-3.69,1.95-1.51.8c1.07-2,2.22-4,3.48-6,1.69-2.57,3.53-5,5.46-7.42.08-.1-.06-.25-.16-.15a51.21,51.21,0,0,0-7.46,9.14c0-.1,0-.21,0-.31,0-.75.06-1.49.07-2.24,0-1.47-.05-2.93,0-4.39,0-.09-.13-.09-.13,0-.06,1.44-.24,2.88-.32,4.32,0,.72-.07,1.43-.09,2.15,0,.39-.05.84,0,1.26-.66,1.06-1.3,2.13-1.9,3.22a54.89,54.89,0,0,0-2.88,6c0-.75-.08-1.49-.12-2.24-.1-1.64-.3-3.28-.37-4.92a.07.07,0,0,0-.14,0c0,1.64,0,3.29,0,4.93,0,.82.05,1.64.11,2.46,0,.3,0,.61.05.92a55.06,55.06,0,0,0-2.43,8.24,89.51,89.51,0,0,0-1.2,9.06s0,0,0,0a49.86,49.86,0,0,1,1.71-8.08c.4-1.41.82-2.82,1.28-4.22,1.34-.63,2.62-1.42,3.92-2.14l4-2.21c2.69-1.47,5.38-3,8.15-4.28.08,0,0-.15-.07-.12-2.81,1.28-5.64,2.49-8.4,3.87-1.38.69-2.73,1.43-4.07,2.19-1.12.63-2.27,1.26-3.34,2,.32-.93.64-1.86,1-2.78A80.43,80.43,0,0,1,412.29,265.64Z" style="fill:#263238"></path><path d="M409.58,258.78c0-.09-.15-.08-.14,0,.11,1.72.17,3.43.35,5.13,0,.1.16.1.15,0C409.89,262.19,409.7,260.49,409.58,258.78Z" style="fill:#263238"></path><path d="M425,264.51c-2,.81-4,1.58-6.06,2.42-.06,0,0,.12,0,.1,2-.77,4-1.6,6.07-2.39C425.15,264.61,425.11,264.48,425,264.51Z" style="fill:#263238"></path><path d="M428.09,250.67a54.43,54.43,0,0,0-5.73,3.08.08.08,0,0,0,.09.14c1.87-1.09,3.78-2.14,5.72-3.1C428.25,250.75,428.17,250.64,428.09,250.67Z" style="fill:#263238"></path><rect x="381.12" y="347.53" width="46.49" height="49" style="fill:#37474f"></rect><rect x="377.92" y="364.87" width="2.38" height="83.93" style="fill:#263238"></rect><rect x="428.18" y="364.87" width="2.38" height="83.93" style="fill:#263238"></rect><rect x="404.32" y="364.87" width="2.38" height="83.93" style="fill:#263238"></rect><rect x="379.11" y="393.39" width="50.26" height="6.78" style="fill:#263238"></rect></g><g id="freepik--Floor--inject-469"><polygon points="47.44 448.81 98.08 448.56 148.72 448.48 250 448.31 351.28 448.47 401.92 448.56 452.56 448.81 401.92 449.05 351.28 449.14 250 449.31 148.72 449.14 98.08 449.05 47.44 448.81" style="fill:#263238"></polygon></g><g id="freepik--Device--inject-469"><path d="M340.47,59.4h-172a17.55,17.55,0,0,0-17.39,17.72v354a17.57,17.57,0,0,0,17.39,17.72h172a17.58,17.58,0,0,0,17.41-17.72v-354A17.56,17.56,0,0,0,340.47,59.4ZM347,420.14c0,9.32-7,16.86-15.58,16.86H177.6C169,437,162,429.46,162,420.14V90.53c0-19,7-19.9,15.61-19.9h30.81c1.79,0,3.25,2,3.25,4.56v1.08c0,5.91,3.24,5.93,7.21,5.93h71.26c4,0,7.21,0,7.21-5.93V75.19c0-2.53,1.45-4.56,3.27-4.56h30.82c8.6,0,15.58,2.52,15.58,19.9Z" style="fill:#263238"></path><path d="M264.22,74.82H244.78a1.2,1.2,0,0,1-1.2-1.2h0a1.2,1.2,0,0,1,1.2-1.2h19.44a1.2,1.2,0,0,1,1.2,1.2h0A1.19,1.19,0,0,1,264.22,74.82Z" style="fill:#fff"></path><path d="M347,90.53V420.14c0,9.32-7,16.86-15.58,16.86H177.6c-8.63,0-15.6-7.54-15.6-16.86V90.53c0-19,7-19.9,15.6-19.9h30.81c1.79,0,3.25,2,3.25,4.56v1.08c0,5.91,3.24,5.93,7.21,5.93h71.26c4,0,7.22,0,7.22-5.93V75.19c0-2.53,1.44-4.56,3.26-4.56h30.82C340,70.63,347,73.15,347,90.53Z" style="fill:#fff"></path><path d="M347,90.53v24.6H162V90.53c0-19,7-19.9,15.6-19.9h30.82c1.79,0,3.26,2,3.26,4.56v1.08c0,5.91,3.23,5.93,7.2,5.93h71.26c4,0,7.22,0,7.22-5.93V75.19c0-2.53,1.45-4.56,3.27-4.56h30.8C340,70.63,347,73.15,347,90.53Z" style="fill:#367917"></path><polygon points="180.72 103.12 175.26 98 180.72 92.88 181.57 93.78 177.07 98 181.57 102.22 180.72 103.12" style="fill:#fff"></polygon><path d="M332.68,94.81a1.08,1.08,0,1,1-1.07-1.08A1.08,1.08,0,0,1,332.68,94.81Z" style="fill:#fff"></path><path d="M332.68,98.63a1.08,1.08,0,1,1-1.07-1.07A1.07,1.07,0,0,1,332.68,98.63Z" style="fill:#fff"></path><path d="M332.68,102.46a1.08,1.08,0,1,1-1.07-1.08A1.07,1.07,0,0,1,332.68,102.46Z" style="fill:#fff"></path><g id="freepik--u5Zjqx--inject-469"><path d="M203.09,78l-.3.3-.16.17a4.06,4.06,0,0,0-5.74,0l-.16-.17-.3-.29h0l.38-.34a4.4,4.4,0,0,1,.87-.55,4.29,4.29,0,0,1,1.16-.39l.57-.08c.07,0,.49,0,.51,0s.26,0,.39,0a3.9,3.9,0,0,1,1.06.25,4.58,4.58,0,0,1,.71.33,4.24,4.24,0,0,1,.69.48l.31.28Z" style="fill:#fff"></path><path d="M197.83,79.43l-.47-.46a3.39,3.39,0,0,1,4.79,0l-.47.47a2.66,2.66,0,0,0-1.92-.8A2.7,2.7,0,0,0,197.83,79.43Z" style="fill:#fff"></path><path d="M201.21,79.9l-.47.47a1.39,1.39,0,0,0-2,0l-.47-.46A2,2,0,0,1,201.21,79.9Z" style="fill:#fff"></path><path d="M200.18,80.8a.43.43,0,0,1-.85,0,.43.43,0,1,1,.85,0Z" style="fill:#fff"></path></g><path d="M174.06,78.93a1.23,1.23,0,1,1,1.23,1.23A1.22,1.22,0,0,1,174.06,78.93Z" style="fill:#fff"></path><path d="M177.92,78.93a1.23,1.23,0,1,1,1.23,1.23A1.22,1.22,0,0,1,177.92,78.93Z" style="fill:#fff"></path><path d="M181.78,78.93A1.23,1.23,0,1,1,183,80.16,1.22,1.22,0,0,1,181.78,78.93Z" style="fill:#fff"></path><path d="M185.65,78.93a1.23,1.23,0,1,1,1.22,1.23A1.22,1.22,0,0,1,185.65,78.93Z" style="fill:#fff"></path><path d="M189.51,78.93a1.23,1.23,0,1,1,1.22,1.23A1.22,1.22,0,0,1,189.51,78.93Z" style="fill:#fff"></path><path d="M333.14,81.62h-10V77h10Zm-9.48-.53h8.95V77.5h-8.95Z" style="fill:#fff"></path><rect x="323.98" y="77.77" width="6.43" height="3.05" style="fill:#fff"></rect><rect x="333.14" y="78.06" width="0.89" height="2.47" style="fill:#fff"></rect><path d="M330,144.48a.49.49,0,1,1,0,1,.49.49,0,0,1,0-1Z" style="fill:#ebebeb"></path><path d="M331.51,144.48a.49.49,0,1,1,0,1,.49.49,0,0,1,0-1Z" style="fill:#ebebeb"></path><path d="M333,144.48a.49.49,0,1,1-.49.49A.49.49,0,0,1,333,144.48Z" style="fill:#ebebeb"></path><path d="M186.21,152.45a8,8,0,1,1,3.55-8.66A8,8,0,0,1,186.21,152.45Z" style="fill:#367917"></path><path d="M184.45,144.76a2.43,2.43,0,1,1-2.43-2.42A2.43,2.43,0,0,1,184.45,144.76Z" style="fill:#fff"></path><path d="M186.21,151.45v1a8,8,0,0,1-8.37,0v-1a4.19,4.19,0,1,1,8.37,0Z" style="fill:#fff"></path><rect x="195.63" y="141.83" width="44.99" height="1.77" style="fill:#c7c7c7"></rect><rect x="195.63" y="146.21" width="50.24" height="0.98" style="fill:#ebebeb"></rect><rect x="195.63" y="148.83" width="35.99" height="0.98" style="fill:#ebebeb"></rect><rect x="185.59" y="301.41" width="147.99" height="7.13" style="fill:#ebebeb"></rect><path d="M180.41,308.42a3.78,3.78,0,0,1-1.15.48,4,4,0,1,1,1.15-.48Z" style="fill:#dbdbdb"></path><path d="M179.52,304.57a1.21,1.21,0,1,1-1.21-1.21A1.22,1.22,0,0,1,179.52,304.57Z" style="fill:#fff"></path><path d="M180.41,307.92v.5a3.78,3.78,0,0,1-1.15.48,4,4,0,0,1-3-.48v-.5a2.1,2.1,0,0,1,4.2,0Z" style="fill:#fff"></path><path d="M191.25,305.65H190l-.25.67a.1.1,0,0,1-.09.07h0a.1.1,0,0,1,0-.13l1-2.63a.11.11,0,0,1,.2,0l1,2.63a.1.1,0,0,1-.05.13h0a.11.11,0,0,1-.09-.07Zm-1.22-.19h1.14l-.57-1.53Z" style="fill:#a6a6a6"></path><path d="M193.76,306a1,1,0,0,1-.77.39,1,1,0,1,1,.77-1.6v-1.14a.1.1,0,0,1,.1-.1.11.11,0,0,1,.1.1v2.64a.11.11,0,0,1-.1.1.1.1,0,0,1-.1-.1Zm0-.57v-.06a.77.77,0,1,0-1.53,0,.78.78,0,0,0,.76.79A.79.79,0,0,0,193.76,305.43Z" style="fill:#a6a6a6"></path><path d="M196.43,306a.93.93,0,0,1-.76.39,1,1,0,0,1,0-2,1,1,0,0,1,.76.39v-1.14a.11.11,0,0,1,.1-.1.1.1,0,0,1,.1.1v2.64a.1.1,0,0,1-.1.1.11.11,0,0,1-.1-.1Zm0-.57v-.06a.79.79,0,1,0,0,.06Z" style="fill:#a6a6a6"></path><path d="M200.4,304.5v1.79a.1.1,0,0,1-.09.1.1.1,0,0,1-.1-.1V306a.94.94,0,0,1-.75.39,1,1,0,0,1,0-2,.94.94,0,0,1,.75.39v-.29a.09.09,0,0,1,.1-.1A.09.09,0,0,1,200.4,304.5Zm-.19.9a.75.75,0,1,0-1.49,0,.75.75,0,1,0,1.49,0Z" style="fill:#a6a6a6"></path><path d="M202.32,305.39a1,1,0,0,1,1-1,1,1,0,0,1,.64.22.09.09,0,0,1,0,.13.11.11,0,0,1-.14,0,.83.83,0,0,0-.51-.18.8.8,0,1,0,0,1.6.82.82,0,0,0,.51-.17.11.11,0,0,1,.14,0,.1.1,0,0,1,0,.14,1,1,0,0,1-.63.21A1,1,0,0,1,202.32,305.39Z" style="fill:#a6a6a6"></path><path d="M205.57,304.4a1,1,0,1,1-.94,1A1,1,0,0,1,205.57,304.4Zm0,1.79a.77.77,0,0,0,.74-.79.75.75,0,1,0-1.49,0A.77.77,0,0,0,205.57,306.19Z" style="fill:#a6a6a6"></path><path d="M210.09,305.21a.61.61,0,1,0-1.22,0v1.09h0s0,0-.05.06h-.12a0,0,0,0,1,0,0h0v0h0v-1.09a.61.61,0,0,0-.61-.61.62.62,0,0,0-.62.61v1.09a.07.07,0,0,1,0,.07h-.07a.18.18,0,0,1-.08-.07V304.5a.1.1,0,0,1,.1-.09.09.09,0,0,1,.09.09v.19a.82.82,0,0,1,.62-.28.79.79,0,0,1,.7.42.84.84,0,0,1,.72-.42.8.8,0,0,1,.8.8v1.09a.1.1,0,0,1-.09.09.1.1,0,0,1-.1-.09Z" style="fill:#a6a6a6"></path><path d="M214,305.21a.63.63,0,0,0-.62-.61.62.62,0,0,0-.61.61v1.09h0s0,0-.05.06h-.15v0h0v-1.09a.61.61,0,1,0-1.22,0v1.09a.08.08,0,0,1,0,.07h-.07a.11.11,0,0,1-.08-.07V304.5a.09.09,0,0,1,.09-.09.09.09,0,0,1,.1.09v.19a.81.81,0,0,1,1.32.14.82.82,0,0,1,.71-.42.8.8,0,0,1,.81.8v1.09a.1.1,0,0,1-.1.09.1.1,0,0,1-.09-.09Z" style="fill:#a6a6a6"></path><path d="M214.82,305.4a1,1,0,0,1,1-1,1,1,0,0,1,1,.93h0a.08.08,0,0,1-.09.09H215a.77.77,0,0,0,.77.76.74.74,0,0,0,.64-.36.1.1,0,0,1,.13,0,.11.11,0,0,1,0,.14,1,1,0,0,1-.8.45A1,1,0,0,1,214.82,305.4Zm.21-.16h1.5a.76.76,0,0,0-.74-.64A.77.77,0,0,0,215,305.24Z" style="fill:#a6a6a6"></path><path d="M218.85,305.21a.61.61,0,0,0-.61-.61.62.62,0,0,0-.61.61v1.1s0,0,0,0a.09.09,0,0,1-.08,0h0a.18.18,0,0,1-.07-.05v0h0V304.5a.1.1,0,0,1,.2,0v.19a.79.79,0,0,1,.61-.28.8.8,0,0,1,.81.8v1.08a.1.1,0,0,1-.2,0Z" style="fill:#a6a6a6"></path><path d="M220.61,304.5a.11.11,0,0,1-.09.1h-.26V306a.16.16,0,0,0,.15.15.1.1,0,0,1,0,.2.34.34,0,0,1-.35-.35V304.6h-.25c-.1,0-.1-.05-.1-.1s0-.1.1-.1h.25v-.74a.1.1,0,0,1,.2,0v.74h.26A.11.11,0,0,1,220.61,304.5Z" style="fill:#a6a6a6"></path><path d="M221.7,306a.2.2,0,0,1,.2.21.2.2,0,0,1-.4,0A.2.2,0,0,1,221.7,306Z" style="fill:#a6a6a6"></path><path d="M222.63,306a.21.21,0,0,1,.21.21.2.2,0,0,1-.21.2.2.2,0,0,1-.2-.2A.2.2,0,0,1,222.63,306Z" style="fill:#a6a6a6"></path><path d="M223.57,306a.2.2,0,0,1,.2.21.2.2,0,0,1-.2.2.2.2,0,0,1-.21-.2A.21.21,0,0,1,223.57,306Z" style="fill:#a6a6a6"></path><rect x="174.5" y="315.2" width="159.09" height="0.26" style="fill:#ebebeb"></rect><path d="M330,327.46a.5.5,0,0,1,.5.5.49.49,0,0,1-.5.48.47.47,0,0,1-.48-.48A.48.48,0,0,1,330,327.46Z" style="fill:#ebebeb"></path><path d="M331.51,327.46a.5.5,0,0,1,.5.5.49.49,0,0,1-.5.48A.48.48,0,0,1,331,328,.49.49,0,0,1,331.51,327.46Z" style="fill:#ebebeb"></path><path d="M333,327.46a.49.49,0,0,1,.49.5.49.49,0,0,1-1,0A.49.49,0,0,1,333,327.46Z" style="fill:#ebebeb"></path><path d="M186.21,335.43a7.72,7.72,0,0,1-2.3,1,8,8,0,1,1,2.3-1Z" style="fill:#367917"></path><path d="M184.45,327.75a2.43,2.43,0,1,1-2.43-2.43A2.43,2.43,0,0,1,184.45,327.75Z" style="fill:#fff"></path><path d="M186.21,334.43v1a7.72,7.72,0,0,1-2.3,1,7.92,7.92,0,0,1-6.07-1v-1a4.19,4.19,0,1,1,8.37,0Z" style="fill:#fff"></path><rect x="195.63" y="324.81" width="44.99" height="1.77" style="fill:#c7c7c7"></rect><rect x="195.63" y="329.2" width="50.24" height="0.98" style="fill:#ebebeb"></rect><rect x="195.63" y="331.82" width="35.99" height="0.98" style="fill:#ebebeb"></rect><rect x="185.59" y="415.62" width="147.99" height="7.13" style="fill:#ebebeb"></rect><path d="M180.41,422.64a4,4,0,0,1-4.2,0,4,4,0,1,1,4.2,0Z" style="fill:#dbdbdb"></path><path d="M179.52,418.79a1.21,1.21,0,1,1-1.21-1.22A1.21,1.21,0,0,1,179.52,418.79Z" style="fill:#fff"></path><path d="M180.41,422.14v.5a4,4,0,0,1-4.2,0v-.5a2.1,2.1,0,0,1,4.2,0Z" style="fill:#fff"></path><path d="M191.25,419.87H190l-.25.67a.09.09,0,0,1-.09.06h0a.1.1,0,0,1,0-.13l1-2.63a.11.11,0,0,1,.2,0l1,2.63a.1.1,0,0,1-.05.13h0a.1.1,0,0,1-.09-.06Zm-1.22-.2h1.14l-.57-1.52Z" style="fill:#a6a6a6"></path><path d="M193.76,420.22a1,1,0,1,1-.77-1.6,1,1,0,0,1,.77.39v-1.15a.09.09,0,0,1,.1-.09.1.1,0,0,1,.1.09v2.65a.1.1,0,0,1-.1.09.09.09,0,0,1-.1-.09Zm0-.57v-.07a.8.8,0,1,0,0,.07Z" style="fill:#a6a6a6"></path><path d="M196.43,420.22a1,1,0,0,1-.76.38,1,1,0,0,1,0-2,.93.93,0,0,1,.76.39v-1.15a.1.1,0,0,1,.1-.09.09.09,0,0,1,.1.09v2.65a.09.09,0,0,1-.1.09.1.1,0,0,1-.1-.09Zm0-.57v-.07a.8.8,0,1,0,0,.07Z" style="fill:#a6a6a6"></path><path d="M200.4,418.72v1.79a.09.09,0,0,1-.09.09.09.09,0,0,1-.1-.09v-.3a.91.91,0,0,1-.75.39,1,1,0,0,1,0-2,.91.91,0,0,1,.75.39v-.29a.09.09,0,0,1,.1-.1A.09.09,0,0,1,200.4,418.72Zm-.19.89a.75.75,0,1,0-1.49,0,.75.75,0,1,0,1.49,0Z" style="fill:#a6a6a6"></path><path d="M202.32,419.61a1,1,0,0,1,1-1,1,1,0,0,1,.64.22.09.09,0,0,1,0,.13.11.11,0,0,1-.14,0,.78.78,0,0,0-.51-.18.8.8,0,1,0,0,1.6.89.89,0,0,0,.51-.17.11.11,0,0,1,.14,0,.1.1,0,0,1,0,.14,1,1,0,0,1-.63.21A1,1,0,0,1,202.32,419.61Z" style="fill:#a6a6a6"></path><path d="M205.57,418.62a1,1,0,1,1-.94,1A1,1,0,0,1,205.57,418.62Zm0,1.79a.8.8,0,1,0-.75-.8A.78.78,0,0,0,205.57,420.41Z" style="fill:#a6a6a6"></path><path d="M210.09,419.43a.61.61,0,1,0-1.22,0v1.08h0l-.05,0h-.14v-1.08a.61.61,0,0,0-.61-.62.62.62,0,0,0-.62.62v1.08a.09.09,0,0,1,0,.08h-.07s-.06,0-.08-.07v-1.81a.1.1,0,0,1,.1-.1.09.09,0,0,1,.09.1v.19a.8.8,0,0,1,1.32.13.84.84,0,0,1,.72-.42.8.8,0,0,1,.8.81v1.08a.09.09,0,0,1-.09.09.09.09,0,0,1-.1-.09Z" style="fill:#a6a6a6"></path><path d="M214,419.43a.63.63,0,0,0-.62-.62.62.62,0,0,0-.61.62v1.08h0l-.05,0h-.15v-1.08a.61.61,0,1,0-1.22,0v1.08a.12.12,0,0,1,0,.08h-.07a.08.08,0,0,1-.08-.07v-1.81a.09.09,0,0,1,.09-.1.09.09,0,0,1,.1.1v.19a.78.78,0,0,1,.61-.29.81.81,0,0,1,.71.42.82.82,0,0,1,.71-.42.81.81,0,0,1,.81.81v1.08a.09.09,0,0,1-.1.09.09.09,0,0,1-.09-.09Z" style="fill:#a6a6a6"></path><path d="M214.82,419.62a1,1,0,0,1,1-1,1,1,0,0,1,1,.92h0a.09.09,0,0,1-.09.09H215a.78.78,0,0,0,.77.76.76.76,0,0,0,.64-.36.09.09,0,0,1,.13,0,.1.1,0,0,1,0,.13.93.93,0,0,1-.8.45A1,1,0,0,1,214.82,419.62Zm.21-.16h1.5a.76.76,0,0,0-.74-.65A.78.78,0,0,0,215,419.46Z" style="fill:#a6a6a6"></path><path d="M218.85,419.43a.61.61,0,0,0-.61-.61.61.61,0,0,0-.61.61v1.08h0s0,0,0,.05a.11.11,0,0,1-.08,0h0s0,0-.07-.05h0v-1.81a.1.1,0,1,1,.2,0v.19a.79.79,0,0,1,.61-.29.81.81,0,0,1,.81.81v1.08a.1.1,0,0,1-.2,0Z" style="fill:#a6a6a6"></path><path d="M220.61,418.72a.11.11,0,0,1-.09.09h-.26v1.45a.16.16,0,0,0,.15.15.11.11,0,0,1,.1.1.1.1,0,0,1-.1.09.33.33,0,0,1-.35-.34v-1.45h-.25c-.1,0-.1-.05-.1-.09s0-.1.1-.1h.25v-.74a.1.1,0,1,1,.2,0v.74h.26A.11.11,0,0,1,220.61,418.72Z" style="fill:#a6a6a6"></path><path d="M221.7,420.2a.2.2,0,0,1,.2.2.2.2,0,1,1-.4,0A.2.2,0,0,1,221.7,420.2Z" style="fill:#a6a6a6"></path><path d="M222.63,420.2a.2.2,0,0,1,.21.2.2.2,0,0,1-.21.2.19.19,0,0,1-.2-.2A.2.2,0,0,1,222.63,420.2Z" style="fill:#a6a6a6"></path><path d="M223.57,420.2a.2.2,0,0,1,.2.2.19.19,0,0,1-.2.2.2.2,0,0,1-.21-.2A.2.2,0,0,1,223.57,420.2Z" style="fill:#a6a6a6"></path><rect x="174.06" y="250.75" width="48.78" height="43.09" transform="translate(396.9 544.59) rotate(180)" style="fill:#ebebeb"></rect><path d="M219.88,263H197.14a4.71,4.71,0,0,1,2.38-1.66s2.42-7.22,6.48-7.27c3.77,0,5.29,4.44,5.29,4.44s1.74-2,3.41-1.09,2.62,3.55,2.62,3.55A9,9,0,0,1,219.88,263Z" style="fill:#fff"></path><path d="M176.22,279.39H205s0-1.83-4-2.19c0,0-3.62-8-9.14-6.95-3.44.67-5.2,5.39-5.2,5.39s-2.6-3.72-4.68-3-3.31,4.68-3.31,4.68S176.55,278.36,176.22,279.39Z" style="fill:#fff"></path><circle cx="186.66" cy="262.89" r="6.9" style="fill:#367917;opacity:0.5"></circle><circle cx="186.66" cy="262.89" r="4.97" style="fill:#367917"></circle><path d="M190.93,290.94h31.15s-2.94-2.74-4.24-2.74-5.12-9.18-10-8.79-7.46,7.23-7.46,7.23A8.23,8.23,0,0,0,190.93,290.94Z" style="fill:#fff"></path><rect x="229.43" y="250.75" width="48.78" height="43.09" transform="translate(507.64 544.59) rotate(180)" style="fill:#ebebeb"></rect><path d="M259.87,293.84h-1.61c-.12-1.5-.22-2.85-.28-4.06s-.11-2.38-.13-3.29c0-.2,0-.39,0-.56,0-.44,0-.82,0-1.14V284a1.41,1.41,0,0,1,0-.21.28.28,0,0,1,0-.13v-.28l.7.29a.87.87,0,0,0,0,.11v.08c0,.1,0,.25,0,.42s0,.4.07.65.05.54.09.87.06.61.1,1c.09.79.22,1.72.36,2.77C259.38,290.76,259.6,292.22,259.87,293.84Z" style="fill:#367917"></path><path d="M259.87,293.84h-1.61c-.12-1.5-.22-2.85-.28-4.06s-.11-2.38-.13-3.29c0-.2,0-.39,0-.56,0-.44,0-.82,0-1.14V284a1.41,1.41,0,0,1,0-.21.28.28,0,0,1,0-.13v-.28l.7.29a.87.87,0,0,0,0,.11v.08c0,.1,0,.25,0,.42s0,.4.07.65.05.54.09.87.06.61.1,1c.09.79.22,1.72.36,2.77C259.38,290.76,259.6,292.22,259.87,293.84Z" style="opacity:0.30000000000000004"></path><path d="M267.35,268l-3.35.26,3.38,1a13.12,13.12,0,0,1-.83,4.37L263,273.3l3,1.7a14,14,0,0,1-.79,1.39l-2.13-.32,1.52,1.19a18.76,18.76,0,0,1-2.06,2.32l-2-1.17,1.47,1.67a28.38,28.38,0,0,1-4.89,3.45l5.57-26.5a21.71,21.71,0,0,1,3,4.8l-1.37.42,1.68.29a17.15,17.15,0,0,1,.65,1.75l-3.34.72,3.74.8A14.61,14.61,0,0,1,267.35,268Z" style="fill:#37474f"></path><path d="M275.76,278l-1.64-1,1.25,1.74a10.49,10.49,0,0,1-1.63,2.07l-2.22-2.16,1.13,3.08a11.22,11.22,0,0,1-1.31.82l-1.52-1.57.58,2a15,15,0,0,1-2.55.81l-1.56-3.11.16,3.35c-.46.06-.93.11-1.42.14l-.7-2.15-.53,2.19a33.35,33.35,0,0,1-6.64-.7L277,273.13A11.56,11.56,0,0,1,275.76,278Z" style="fill:#455a64"></path><path d="M257.16,283.52a38.61,38.61,0,0,1-6.81-4.68l1.84-2.11-2.64,1.38a25.31,25.31,0,0,1-1.85-1.91l1.83-2.3-2.72,1.22c-.44-.57-.84-1.15-1.21-1.72l3.58-2.79-4.7.77a18.9,18.9,0,0,1-1.44-4.16h0l4.89-2.91-5.22.8c0-.38-.07-.75-.09-1.13l2.89-.82-2.9-.23a21.77,21.77,0,0,1,.21-2.75l4.36-.47-4.1-1a22.71,22.71,0,0,1,2.84-7.17Z" style="fill:#455a64"></path><path d="M248.69,283.08l.13-2.56-1.24,2.37h0l-1.26-.26.44-1.89-1.1,1.73c-.68-.17-1.36-.37-2-.59l.84-2.36-2,1.94a18.8,18.8,0,0,1-3.61-1.82l2.15-3.38-3.25,2.6a13.29,13.29,0,0,1-2.32-2.3l2.28-2.87-3,1.86a11.46,11.46,0,0,1-.83-1.55l3.73-3.36-4.46,1.16a13,13,0,0,1-.35-2.34l3.07-1.22-3.12.07a23,23,0,0,1,.69-5.41s10.08,16,23.71,20.62A41.7,41.7,0,0,1,248.69,283.08Z" style="fill:#37474f"></path><path d="M252.11,287.41l-.87-.91.55,1.07c-.3.14-.6.26-.9.38l-.83-1.33.08,1.58a11.3,11.3,0,0,1-1.32.3l-.57-2.45-.44,2.56a9.78,9.78,0,0,1-2.84-.24l-.21-1.95-.48,1.76a9.72,9.72,0,0,1-1.11-.4l.53-2.34-1.36,1.95a14.9,14.9,0,0,1-1.83-1.13l.66-1.52L240.1,286l-.59-.48.5-.88-.86.57a16.65,16.65,0,0,1-2.35-2.6c7.75,3.82,20.4.92,20.4.92A18.64,18.64,0,0,1,252.11,287.41Z" style="fill:#455a64"></path><path d="M270.43,288.81l-.64-.9L270,289a9.38,9.38,0,0,1-1.2.39l-.46-1.77-.15,1.9a8.51,8.51,0,0,1-1.91.11l-.29-1.79-.66,1.69a9.21,9.21,0,0,1-1.28-.32l.28-1.53-.8,1.35a8.57,8.57,0,0,1-1-.44l.48-1.88L261.51,288a11.55,11.55,0,0,1-1-.68l.6-1-1,.69a22.28,22.28,0,0,1-3.35-3.46s9.75,4.05,16.62,3.18A9.76,9.76,0,0,1,270.43,288.81Z" style="fill:#37474f"></path><path d="M257.09,288.74l-1.13-.39,1,.87a5.53,5.53,0,0,1-.46.91l-1-.3.73.61a4,4,0,0,1-.3.37l-1.24-.73.8,1.15a5.24,5.24,0,0,1-1.23.77l-.83-.72.37.9-.63.18-.56-.81.19.89a7.65,7.65,0,0,1-2.13.1c4.41-2.9,6.45-9.06,6.45-9.06A11.06,11.06,0,0,1,257.09,288.74Z" style="fill:#37474f"></path><path d="M260.86,287.39a3,3,0,1,1-2.33-3.58A3,3,0,0,1,260.86,287.39Z" style="fill:#367917"></path><path d="M260.86,287.39a3,3,0,1,1-2.33-3.58A3,3,0,0,1,260.86,287.39Z" style="opacity:0.4"></path><path d="M258.86,284.23a3,3,0,1,1-2.33-3.59A3,3,0,0,1,258.86,284.23Z" style="fill:#367917"></path><path d="M258.86,284.23a3,3,0,1,1-2.33-3.59A3,3,0,0,1,258.86,284.23Z" style="opacity:0.30000000000000004"></path><circle cx="258.98" cy="283.69" r="3.02" style="fill:#367917"></circle><circle cx="258.98" cy="283.69" r="3.02" style="opacity:0.2"></circle><rect x="284.81" y="250.75" width="48.78" height="43.09" transform="translate(618.39 544.59) rotate(180)" style="fill:#ebebeb"></rect><polygon points="308.8 277 309.55 280.16 310.81 279.45 309.45 276.79 308.8 277" style="fill:#367917"></polygon><path d="M308.32,274.69a1.39,1.39,0,0,0,.89,2.64A1.39,1.39,0,0,0,308.32,274.69Z" style="fill:#263238"></path><path d="M308.24,275.28s-.05-.1-.09-.08a.76.76,0,0,0-.37.86c.05.31.33.83.7.78a.15.15,0,0,0,.12-.15c0-.24-.26-.43-.34-.65A1.63,1.63,0,0,1,308.24,275.28Z" style="fill:#fff"></path><polygon points="315.81 273.86 317.57 276.58 316.19 277.01 315.2 274.18 315.81 273.86" style="fill:#367917"></polygon><path d="M314.47,271.91a1.4,1.4,0,0,1,1.29,2.48A1.4,1.4,0,0,1,314.47,271.91Z" style="fill:#263238"></path><path d="M314.54,272.19a.82.82,0,0,0-.58.75,1,1,0,0,0,.47,1c.18.08.31-.1.27-.26a2.35,2.35,0,0,1-.17-.74,2.38,2.38,0,0,1,.13-.6C314.68,272.23,314.62,272.16,314.54,272.19Z" style="fill:#fff"></path><path d="M301.68,276.55s-2.26,7,.2,9.66,6.55,1.13,6.55,1.13l.25,2.13s-5.54,1.44-8-2.16.53-11,.53-11Z" style="fill:#367917"></path><path d="M302.68,271.7l-.58-8.14s-5.31,1.38-5.83,5.66,2.48,7.5,5.31,7.66a6,6,0,0,0,6.18-7.49Z" style="fill:#367917"></path><path d="M321.19,267s6.43,3.58,6.46,7.2-4,5.3-4,5.3l1.27,1.72s5-2.73,4.39-7.06-7.92-7.7-7.92-7.7Z" style="fill:#367917"></path><path d="M317.14,264.11,312,257.78s4.82-2.63,8.13.14,3.31,7.18,1.35,9.23a6,6,0,0,1-9.63-1.25Z" style="fill:#367917"></path><path d="M308.27,291.65c-.18.1-.33.21-.49.31a9.22,9.22,0,0,0-1.91,1.88h-1.79a6.55,6.55,0,0,1,3.47-2.59,1.57,1.57,0,0,1,.47-.05C308.24,291.21,308.48,291.52,308.27,291.65Z" style="fill:#367917"></path><path d="M327,283.22c.74-1.14,3.35-1.83,4.83-1.64a.64.64,0,0,1,0,1.26c-.89.3-2.7,0-4.64.85C327,283.79,326.87,283.41,327,283.22Z" style="fill:#367917"></path><path d="M333.58,285.57v1.21a.6.6,0,0,1-.24.05c-.89,0-2.43-.76-4.42-.55l-.27,0c-.24.05-.24-.36-.07-.51a1.1,1.1,0,0,1,.21-.14A6.29,6.29,0,0,1,333.58,285.57Z" style="fill:#367917"></path><path d="M328.3,288.48c1.25-.53,3.8.37,4.9,1.37a.64.64,0,0,1-.68,1.06c-.91-.27-2.2-1.57-4.31-1.93C328,288.94,328.09,288.56,328.3,288.48Z" style="fill:#367917"></path><path d="M329,288.33a3.56,3.56,0,0,1-.1.47c0,.11-.06.2-.1.31-.64,1.52-2.66,3.26-5.16,4.73H308.57a15.38,15.38,0,0,1-.79-1.88c-.08-.23-.16-.47-.23-.71-.16-.5-.29-1-.41-1.54s-.26-1.34-.34-2a12.58,12.58,0,0,1,.49-6.16,6.15,6.15,0,0,1,2-2.29,8.21,8.21,0,0,1,1-.7,21,21,0,0,1,5.5-2.5c.41-.12.81-.21,1.19-.29a6.61,6.61,0,0,1,2.72-.05,11.58,11.58,0,0,1,4.93,3.18,18.6,18.6,0,0,1,1.36,1.55,20,20,0,0,1,1.49,2.22c.13.26.26.5.38.75a12.54,12.54,0,0,1,.87,2.25,6.19,6.19,0,0,1,.13.62A5.49,5.49,0,0,1,329,288.33Z" style="fill:#367917"></path><rect x="174.23" y="131.07" width="159.61" height="0.26" style="fill:#ebebeb"></rect><path d="M204.84,126.39h-.6v1.06a.28.28,0,0,1-.28.27.27.27,0,0,1-.27-.27v-2.9a.26.26,0,0,1,.27-.27h.88a1.06,1.06,0,1,1,0,2.11Zm-.6-.55h.6a.51.51,0,1,0,0-1h-.6Z" style="fill:#c7c7c7"></path><path d="M206.66,127.37a1.27,1.27,0,0,1,0-1.73,1.13,1.13,0,0,1,.85-.38,1.05,1.05,0,0,1,.82.38,1.24,1.24,0,0,1,0,1.73,1.07,1.07,0,0,1-.82.37A1.16,1.16,0,0,1,206.66,127.37Zm.2-.87a.77.77,0,0,0,.18.52.64.64,0,0,0,.47.18A.63.63,0,0,0,208,127a.73.73,0,0,0,.2-.52.71.71,0,0,0-.2-.51.68.68,0,0,0-.45-.19.69.69,0,0,0-.47.19A.74.74,0,0,0,206.86,126.5Z" style="fill:#c7c7c7"></path><path d="M209.4,127a.26.26,0,0,1,.37,0,.93.93,0,0,0,.54.22.65.65,0,0,0,.34-.1c.07-.06.09-.1.09-.14a.06.06,0,0,0,0,0s0,0-.06-.06a1.06,1.06,0,0,0-.4-.14h0a2,2,0,0,1-.43-.13.83.83,0,0,1-.34-.28.65.65,0,0,1-.08-.31.69.69,0,0,1,.29-.55,1.11,1.11,0,0,1,.6-.18,1.27,1.27,0,0,1,.74.27.28.28,0,0,1,.08.37.26.26,0,0,1-.36.07.83.83,0,0,0-.46-.19.48.48,0,0,0-.29.09c-.07,0-.08.09-.08.12a.06.06,0,0,0,0,0l.05,0a.93.93,0,0,0,.36.12h0a1.76,1.76,0,0,1,.46.14.75.75,0,0,1,.35.29.63.63,0,0,1,.09.33.71.71,0,0,1-.31.57,1.12,1.12,0,0,1-.64.19,1.42,1.42,0,0,1-.87-.33A.27.27,0,0,1,209.4,127Z" style="fill:#c7c7c7"></path><path d="M213.13,125.53a.28.28,0,0,1-.28.27h-.12v1.38a.27.27,0,0,1,.27.27.26.26,0,0,1-.27.27.55.55,0,0,1-.55-.54V125.8H212a.27.27,0,0,1,0-.54h.14v-.71a.27.27,0,0,1,.28-.27.26.26,0,0,1,.27.27v.71h.12A.28.28,0,0,1,213.13,125.53Z" style="fill:#c7c7c7"></path><path d="M213.87,127a.26.26,0,0,1,.37,0,.94.94,0,0,0,.55.22.64.64,0,0,0,.33-.1c.07-.06.09-.1.09-.14a.06.06,0,0,0,0,0s0,0-.06-.06a1.07,1.07,0,0,0-.39-.14h0a2,2,0,0,1-.43-.13.83.83,0,0,1-.34-.28.65.65,0,0,1-.08-.31.72.72,0,0,1,.29-.55,1.12,1.12,0,0,1,.61-.18,1.21,1.21,0,0,1,.73.27.27.27,0,0,1,.08.37.26.26,0,0,1-.36.07.83.83,0,0,0-.45-.19.49.49,0,0,0-.3.09c-.06,0-.08.09-.08.12a.06.06,0,0,0,0,0l.06,0a.87.87,0,0,0,.36.12h0a1.69,1.69,0,0,1,.45.14.71.71,0,0,1,.35.29.64.64,0,0,1,.1.33.73.73,0,0,1-.31.57,1.15,1.15,0,0,1-.64.19,1.45,1.45,0,0,1-.88-.33A.28.28,0,0,1,213.87,127Z" style="fill:#c7c7c7"></path><path d="M236.66,127.68l0,0a0,0,0,0,1,0,0s0,0,0,0a0,0,0,0,1,0,0,.08.08,0,0,0,0,0l-1.21-2.87a.27.27,0,0,1,.5-.21l1,2.28,1-2.28a.27.27,0,0,1,.5.21l-1.21,2.87s0,0,0,0,0,0,0,0,0,0,0,0h0l0,0h0l0,0h-.22l0,0Z" style="fill:#c7c7c7"></path><path d="M239.62,124.65a.27.27,0,0,1-.26.27.28.28,0,0,1-.27-.27v-.11a.26.26,0,0,1,.27-.26.25.25,0,0,1,.26.26Zm0,.89v1.92a.25.25,0,0,1-.26.26.26.26,0,0,1-.27-.26v-1.92a.26.26,0,0,1,.27-.27A.25.25,0,0,1,239.62,125.54Z" style="fill:#c7c7c7"></path><path d="M242.7,127.46a.26.26,0,0,1-.26.26.25.25,0,0,1-.26-.21,1.22,1.22,0,1,1-.67-2.25,1.18,1.18,0,0,1,.66.21v-.93a.27.27,0,0,1,.53,0v1.95h0Zm-1.19-1.66a.65.65,0,0,0-.47.2.7.7,0,0,0-.19.5.71.71,0,0,0,.19.49.69.69,0,0,0,.47.2.65.65,0,0,0,.46-.2.72.72,0,0,0,.2-.49.71.71,0,0,0-.2-.5A.61.61,0,0,0,241.51,125.8Z" style="fill:#c7c7c7"></path><path d="M243.48,126.49a1.22,1.22,0,0,1,1.2-1.23,1.18,1.18,0,0,1,1.19,1.14v.07a.24.24,0,0,1-.26.2H244a.75.75,0,0,0,.17.33.79.79,0,0,0,1,.09.27.27,0,0,1,.36,0,.21.21,0,0,1,0,.32,1.24,1.24,0,0,1-.88.32A1.22,1.22,0,0,1,243.48,126.49Zm.54-.24h1.39a.79.79,0,0,0-.73-.52A.68.68,0,0,0,244,126.25Z" style="fill:#c7c7c7"></path><path d="M246.88,127.37a1.27,1.27,0,0,1,0-1.73,1.14,1.14,0,0,1,.85-.38,1.05,1.05,0,0,1,.82.38,1.24,1.24,0,0,1,0,1.73,1.07,1.07,0,0,1-.82.37A1.17,1.17,0,0,1,246.88,127.37Zm.2-.87a.82.82,0,0,0,.18.52.64.64,0,0,0,.47.18.63.63,0,0,0,.45-.18.73.73,0,0,0,.2-.52.71.71,0,0,0-.2-.51.68.68,0,0,0-.45-.19.69.69,0,0,0-.47.19A.79.79,0,0,0,247.08,126.5Z" style="fill:#c7c7c7"></path><path d="M249.62,127a.26.26,0,0,1,.37,0,.93.93,0,0,0,.54.22.65.65,0,0,0,.34-.1c.07-.06.09-.1.09-.14a.06.06,0,0,0,0,0s0,0-.06-.06a1.06,1.06,0,0,0-.4-.14h0a2,2,0,0,1-.43-.13.83.83,0,0,1-.34-.28.65.65,0,0,1-.08-.31.69.69,0,0,1,.29-.55,1.11,1.11,0,0,1,.6-.18,1.27,1.27,0,0,1,.74.27.28.28,0,0,1,.08.37.26.26,0,0,1-.36.07.83.83,0,0,0-.46-.19.48.48,0,0,0-.29.09c-.07,0-.08.09-.08.12a.06.06,0,0,0,0,0l.05,0a.93.93,0,0,0,.36.12h0a1.76,1.76,0,0,1,.46.14.75.75,0,0,1,.35.29.63.63,0,0,1,.09.33.71.71,0,0,1-.31.57,1.12,1.12,0,0,1-.64.19,1.42,1.42,0,0,1-.87-.33A.27.27,0,0,1,249.62,127Z" style="fill:#c7c7c7"></path><path d="M270.94,126.39h-.61v1.06a.27.27,0,0,1-.54,0v-2.9a.26.26,0,0,1,.27-.27h.88a1.06,1.06,0,1,1,0,2.11Zm-.61-.55h.61a.51.51,0,1,0,0-1h-.61Z" style="fill:#c7c7c7"></path><path d="M273.16,127.45a.27.27,0,0,1-.28.27.27.27,0,0,1-.26-.2.15.15,0,0,1,0-.07v-2.9a.26.26,0,0,1,.27-.27.27.27,0,0,1,.28.27v.85a1.12,1.12,0,0,1,.52-.14,1.08,1.08,0,0,1,1.08,1.08v1.11a.26.26,0,0,1-.27.27.26.26,0,0,1-.27-.27v-1.11a.54.54,0,0,0-.54-.53.52.52,0,0,0-.52.53Z" style="fill:#c7c7c7"></path><path d="M275.86,127.37a1.27,1.27,0,0,1,0-1.73,1.13,1.13,0,0,1,.85-.38,1.07,1.07,0,0,1,.82.38,1.27,1.27,0,0,1,0,1.73,1.09,1.09,0,0,1-.82.37A1.16,1.16,0,0,1,275.86,127.37Zm.2-.87a.81.81,0,0,0,.17.52.68.68,0,0,0,.48.18.63.63,0,0,0,.45-.18.77.77,0,0,0,.19-.52.75.75,0,0,0-.19-.51.68.68,0,0,0-.45-.19.74.74,0,0,0-.48.19A.78.78,0,0,0,276.06,126.5Z" style="fill:#c7c7c7"></path><path d="M279.73,125.53a.28.28,0,0,1-.28.27h-.12v1.38a.27.27,0,0,1,.27.27.26.26,0,0,1-.27.27.55.55,0,0,1-.55-.54V125.8h-.14a.27.27,0,0,1,0-.54h.14v-.71a.27.27,0,0,1,.28-.27.26.26,0,0,1,.27.27v.71h.12A.28.28,0,0,1,279.73,125.53Z" style="fill:#c7c7c7"></path><path d="M280.75,127.37a1.27,1.27,0,0,1,0-1.73,1.12,1.12,0,0,1,.84-.38,1.07,1.07,0,0,1,.83.38,1.27,1.27,0,0,1,0,1.73,1.1,1.1,0,0,1-.83.37A1.15,1.15,0,0,1,280.75,127.37Zm.19-.87a.82.82,0,0,0,.18.52.66.66,0,0,0,.47.18.63.63,0,0,0,.46-.18.77.77,0,0,0,.19-.52.75.75,0,0,0-.19-.51.69.69,0,0,0-.46-.19.71.71,0,0,0-.47.19A.79.79,0,0,0,280.94,126.5Z" style="fill:#c7c7c7"></path><path d="M283.49,127a.26.26,0,0,1,.37,0,.88.88,0,0,0,.54.22.64.64,0,0,0,.33-.1c.07-.06.09-.1.09-.14s0,0,0,0a.14.14,0,0,0-.07-.06,1,1,0,0,0-.39-.14h0a2,2,0,0,1-.43-.13.83.83,0,0,1-.34-.28.65.65,0,0,1-.08-.31.72.72,0,0,1,.29-.55,1.12,1.12,0,0,1,.61-.18,1.27,1.27,0,0,1,.74.27.28.28,0,0,1,.07.37.26.26,0,0,1-.36.07.8.8,0,0,0-.45-.19.51.51,0,0,0-.3.09c-.06,0-.08.09-.08.12a.06.06,0,0,0,0,0l.06,0a.87.87,0,0,0,.36.12h0a1.69,1.69,0,0,1,.45.14.71.71,0,0,1,.35.29.64.64,0,0,1,.1.33.73.73,0,0,1-.31.57,1.15,1.15,0,0,1-.64.19,1.45,1.45,0,0,1-.88-.33A.27.27,0,0,1,283.49,127Z" style="fill:#c7c7c7"></path><path d="M301.29,126a1.8,1.8,0,0,1,1.81-1.77,1.83,1.83,0,0,1,1.13.38.3.3,0,0,1,0,.4.29.29,0,0,1-.39.05,1.22,1.22,0,0,0-.79-.27,1.34,1.34,0,0,0-.89.35,1.24,1.24,0,0,0-.36.86,1.21,1.21,0,0,0,.36.86,1.34,1.34,0,0,0,.89.35,1.22,1.22,0,0,0,.79-.27.3.3,0,0,1,.39.06.28.28,0,0,1,0,.39,1.83,1.83,0,0,1-1.13.38A1.79,1.79,0,0,1,301.29,126Z" style="fill:#c7c7c7"></path><path d="M305.37,127.37a1.27,1.27,0,0,1,0-1.73,1.11,1.11,0,0,1,.84-.38,1.07,1.07,0,0,1,.83.38,1.27,1.27,0,0,1,0,1.73,1.1,1.1,0,0,1-.83.37A1.13,1.13,0,0,1,305.37,127.37Zm.19-.87a.82.82,0,0,0,.18.52.66.66,0,0,0,.47.18.65.65,0,0,0,.46-.18.77.77,0,0,0,.19-.52.75.75,0,0,0-.19-.51.66.66,0,0,0-.93,0A.79.79,0,0,0,305.56,126.5Z" style="fill:#c7c7c7"></path><path d="M310.28,126.28v1.18a.26.26,0,1,1-.52,0v-1.18a.51.51,0,0,0-1,0v1.2h0l0,0v0a.27.27,0,0,1-.25.15h0a.28.28,0,0,1-.22-.26V126.3h0v-.76a.26.26,0,0,1,.26-.27.26.26,0,0,1,.24.15,1.08,1.08,0,0,1,.53-.15,1.05,1.05,0,0,0,1.55,0,1,1,0,0,1,1,1v1.16a.26.26,0,0,1-.26.26.27.27,0,0,1-.27-.26V126.3a.5.5,0,0,0-.49-.51A.51.51,0,0,0,310.28,126.28Z" style="fill:#c7c7c7"></path><path d="M315,126.28v1.18a.25.25,0,0,1-.26.26.26.26,0,0,1-.26-.26v-1.18a.51.51,0,0,0-1,0v1.2h0l0,0v0a.27.27,0,0,1-.25.15h0a.28.28,0,0,1-.22-.26V126.3h0v-.76a.26.26,0,0,1,.26-.27.26.26,0,0,1,.24.15,1.08,1.08,0,0,1,.53-.15,1.05,1.05,0,0,0,1.55,0,1,1,0,0,1,1,1v1.16a.26.26,0,0,1-.26.26.27.27,0,0,1-.27-.26V126.3a.5.5,0,0,0-.49-.51A.51.51,0,0,0,315,126.28Z" style="fill:#c7c7c7"></path><path d="M319.66,126.28v1.18a.25.25,0,0,1-.26.26.26.26,0,0,1-.26-.26v-1.18a.51.51,0,0,0-1,0v1.2h0l0,0v0a.27.27,0,0,1-.24.15h-.05a.28.28,0,0,1-.22-.26V126.3h0v-.76a.26.26,0,0,1,.27-.27.25.25,0,0,1,.23.15,1.08,1.08,0,0,1,.53-.15,1.05,1.05,0,0,0,1.55,0,1,1,0,0,1,1,1v1.16a.26.26,0,0,1-.26.26.27.27,0,0,1-.27-.26V126.3a.5.5,0,0,0-.49-.51A.52.52,0,0,0,319.66,126.28Z" style="fill:#c7c7c7"></path><path d="M323.27,127.72a1,1,0,0,1-1-1v-1.18a.26.26,0,0,1,.26-.26.26.26,0,0,1,.26.26v1.18a.5.5,0,0,0,.5.5.51.51,0,0,0,.52-.5v-1.18a.26.26,0,0,1,.25-.26.27.27,0,0,1,.27.26v1.18A1,1,0,0,1,323.27,127.72Z" style="fill:#c7c7c7"></path><path d="M327.26,126.29v1.17a.26.26,0,1,1-.52,0v-1.17a.5.5,0,0,0-.51-.5.5.5,0,0,0-.5.5v1.17a.09.09,0,0,1,0,.05.26.26,0,0,1-.26.21.25.25,0,0,1-.26-.26v-1.94a.26.26,0,0,1,.5-.11,1,1,0,0,1,1.56.88Z" style="fill:#c7c7c7"></path><path d="M328.76,124.65a.27.27,0,0,1-.26.27.28.28,0,0,1-.27-.27v-.11a.26.26,0,0,1,.27-.26.25.25,0,0,1,.26.26Zm0,.89v1.92a.25.25,0,0,1-.26.26.26.26,0,0,1-.27-.26v-1.92a.26.26,0,0,1,.27-.27A.25.25,0,0,1,328.76,125.54Z" style="fill:#c7c7c7"></path><path d="M330.72,125.53a.28.28,0,0,1-.28.27h-.12v1.38a.27.27,0,0,1,.27.27.26.26,0,0,1-.27.27.55.55,0,0,1-.55-.54V125.8h-.14a.27.27,0,0,1,0-.54h.14v-.71a.27.27,0,0,1,.28-.27.26.26,0,0,1,.27.27v.71h.12A.28.28,0,0,1,330.72,125.53Z" style="fill:#c7c7c7"></path><path d="M333.44,125.52v1.87a1.17,1.17,0,0,1-1.18,1.17,1.19,1.19,0,0,1-.5-.12.26.26,0,0,1-.13-.35A.27.27,0,0,1,332,128a.55.55,0,0,0,.28.07.66.66,0,0,0,.62-.45,1,1,0,0,1-.47.12,1,1,0,0,1-1-1v-1.17a.26.26,0,0,1,.26-.26.25.25,0,0,1,.26.26v1.17a.51.51,0,0,0,1,0v-1.17a.25.25,0,0,1,.25-.26A.26.26,0,0,1,333.44,125.52Z" style="fill:#c7c7c7"></path><rect x="174.25" y="130.94" width="13.74" height="0.52" style="fill:#367917"></rect><path d="M175.57,127.46v-2.91a.27.27,0,0,1,.27-.27h1.61a.27.27,0,1,1,0,.54h-1.33v.91h1.15a.28.28,0,0,1,.27.27.28.28,0,0,1-.27.27h-1.15v1.19a.28.28,0,0,1-.28.27A.27.27,0,0,1,175.57,127.46Z" style="fill:#367917"></path><path d="M178.26,126.5a1.22,1.22,0,0,1,1.2-1.24,1.18,1.18,0,0,1,1.19,1.15v0s0,0,0,0a.23.23,0,0,1-.25.19h-1.57a.59.59,0,0,0,.17.33.72.72,0,0,0,.47.22.78.78,0,0,0,.51-.12.29.29,0,0,1,.37,0,.21.21,0,0,1,0,.32,1.24,1.24,0,0,1-2.08-.9Zm.53-.24h1.4a.81.81,0,0,0-.73-.53A.69.69,0,0,0,178.79,126.26Z" style="fill:#367917"></path><path d="M181.26,126.5a1.23,1.23,0,0,1,1.21-1.24,1.17,1.17,0,0,1,1.18,1.15v.07c0,.12-.12.19-.26.19h-1.57a.65.65,0,0,0,.17.33.74.74,0,0,0,.48.22.79.79,0,0,0,.51-.12.29.29,0,0,1,.37,0,.23.23,0,0,1,0,.32,1.21,1.21,0,0,1-.88.33A1.22,1.22,0,0,1,181.26,126.5Zm.54-.24h1.4a.81.81,0,0,0-.73-.53A.69.69,0,0,0,181.8,126.26Z" style="fill:#367917"></path><path d="M186.68,127.46a.27.27,0,0,1-.27.27.26.26,0,0,1-.26-.21,1.19,1.19,0,0,1-1.87-1,1.23,1.23,0,0,1,1.2-1.24,1.15,1.15,0,0,1,.66.21v-.93a.27.27,0,0,1,.54,0v2h0Zm-1.2-1.66a.69.69,0,0,0-.47.2.72.72,0,0,0-.19.5.7.7,0,0,0,.19.49.65.65,0,0,0,.47.2.61.61,0,0,0,.46-.2.7.7,0,0,0,.2-.49.73.73,0,0,0-.2-.5A.65.65,0,0,0,185.48,125.8Z" style="fill:#367917"></path><path d="M294.24,369a22.09,22.09,0,0,0,8.88,3,22,22,0,0,0,4.23-8.37c1.06-4-1-8.73-4.73-8.42-4.12.35-3.67,6.58-3.67,6.58s-4.08-4.79-7.23-2.13C288.87,362.13,290.68,366.93,294.24,369Z" style="fill:#367917"></path><path d="M191.78,386.1a25.38,25.38,0,0,0,6.05,9,25.4,25.4,0,0,0,9.75-4.71c3.78-2.93,5.21-8.73,1.57-11.05-4-2.57-8,3.46-8,3.46s-.38-7.26-5.14-7C191.7,376,190,381.67,191.78,386.1Z" style="fill:#367917"></path><path d="M308.65,352a11.63,11.63,0,0,0,2.63,4.18,11.66,11.66,0,0,0,4.5-2c1.76-1.28,2.49-3.9.86-5-1.79-1.22-3.68,1.47-3.68,1.47s-.08-3.31-2.24-3.27C308.75,347.4,307.9,350,308.65,352Z" style="fill:#367917"></path><rect x="189.71" y="91.97" width="129.6" height="12.64" style="opacity:0.1"></rect><path d="M239.43,101.1l-1,.77-1.89-2.5-.69-.91a1.5,1.5,0,0,0,.39-.22,1.73,1.73,0,0,0,.53-.68l.73,1Z" style="fill:#fff"></path><path d="M237.42,95.22a2.79,2.79,0,1,0-.9,4.15,3,3,0,0,0,.38-.24,2.74,2.74,0,0,0,.58-.6A2.79,2.79,0,0,0,237.42,95.22Zm-1.2,3a1.5,1.5,0,0,1-.39.22,1.66,1.66,0,1,1,.92-.9A1.73,1.73,0,0,1,236.22,98.24Z" style="fill:#fff"></path><path d="M244.69,99.63a.5.5,0,0,1,.7-.07,3.09,3.09,0,0,0,1.83.74,2,2,0,0,0,1.2-.36.85.85,0,0,0,.41-.69.58.58,0,0,0-.08-.3,1,1,0,0,0-.29-.29,3.79,3.79,0,0,0-1.32-.45h0a4.92,4.92,0,0,1-1.23-.38,2,2,0,0,1-.89-.74,1.43,1.43,0,0,1-.23-.79,1.78,1.78,0,0,1,.77-1.4,2.82,2.82,0,0,1,1.66-.51,3.73,3.73,0,0,1,2.09.77.5.5,0,0,1,.14.68.48.48,0,0,1-.68.14,2.83,2.83,0,0,0-1.55-.61,1.77,1.77,0,0,0-1.07.33.76.76,0,0,0-.37.6.47.47,0,0,0,.07.27.89.89,0,0,0,.26.25,3.44,3.44,0,0,0,1.2.42h0a5.86,5.86,0,0,1,1.32.4,2.22,2.22,0,0,1,1,.8,1.59,1.59,0,0,1,.23.81,1.85,1.85,0,0,1-.83,1.49,2.94,2.94,0,0,1-1.77.55,4.16,4.16,0,0,1-2.46-1A.51.51,0,0,1,244.69,99.63Z" style="fill:#fff"></path><path d="M250.85,98.9a2.38,2.38,0,0,1,2.34-2.4,2.3,2.3,0,0,1,2.32,2.23v0a.28.28,0,0,1,0,.09.46.46,0,0,1-.5.38H252a1.34,1.34,0,0,0,.32.64,1.5,1.5,0,0,0,.92.43,1.57,1.57,0,0,0,1-.24.55.55,0,0,1,.72,0,.43.43,0,0,1,0,.62,2.42,2.42,0,0,1-4.06-1.76Zm1.05-.47h2.71a1.57,1.57,0,0,0-1.42-1A1.35,1.35,0,0,0,251.9,98.43Z" style="fill:#fff"></path><path d="M261.09,98.91v1.88a.51.51,0,0,1-.51.51.52.52,0,0,1-.5-.42,2.2,2.2,0,0,1-1.28.42,2.25,2.25,0,0,1-1.63-.7,2.47,2.47,0,0,1-.65-1.69,2.43,2.43,0,0,1,.65-1.69,2.23,2.23,0,0,1,1.63-.72,2.2,2.2,0,0,1,1.28.42.52.52,0,0,1,.5-.42.51.51,0,0,1,.51.52Zm-1,0a1.42,1.42,0,0,0-.37-1,1.19,1.19,0,0,0-.9-.39,1.15,1.15,0,0,0-.89.39,1.41,1.41,0,0,0-.36,1,1.45,1.45,0,0,0,.36,1,1.21,1.21,0,0,0,.89.37,1.25,1.25,0,0,0,.9-.37A1.46,1.46,0,0,0,260.07,98.91Z" style="fill:#fff"></path><path d="M265.92,97a.51.51,0,0,1-.51.51,1,1,0,0,0-.58.18,1.61,1.61,0,0,0-.44.46A3,3,0,0,0,264,99v1.82a.52.52,0,0,1-.53.51.51.51,0,0,1-.51-.51V97a.5.5,0,0,1,.51-.5.51.51,0,0,1,.53.5v.07a.89.89,0,0,1,.2-.19,2.05,2.05,0,0,1,1.21-.38A.5.5,0,0,1,265.92,97Z" style="fill:#fff"></path><path d="M266.6,98.91A2.44,2.44,0,0,1,269,96.5a2.51,2.51,0,0,1,1.53.53.53.53,0,0,1,.11.71.51.51,0,0,1-.72.09,1.56,1.56,0,0,0-.92-.3,1.38,1.38,0,1,0,0,2.75A1.52,1.52,0,0,0,270,100a.53.53,0,0,1,.72.11.54.54,0,0,1-.11.71,2.62,2.62,0,0,1-1.53.51A2.43,2.43,0,0,1,266.6,98.91Z" style="fill:#fff"></path><path d="M273.47,100.77a.53.53,0,0,1-.53.53.56.56,0,0,1-.51-.4.44.44,0,0,1,0-.13V95.11a.53.53,0,1,1,1.06,0v1.67a2.26,2.26,0,0,1,1-.28,2.1,2.1,0,0,1,2.09,2.1v2.17a.53.53,0,1,1-1,0V98.6a1,1,0,0,0-2.07,0Z" style="fill:#fff"></path></g><g id="freepik--character-1--inject-469"><path d="M145.19,346.61l30.06,25.82c5.52,5.42,10.26,10.27,12.47,13a.08.08,0,0,1,0,0,5.3,5.3,0,0,1,1.3,2.09s0,0,0,.06c-.51,2.74-42.54,48.09-44.54,49.18s-5.26-4.53-5-7.59,8.56-27.63,8.56-27.63l-29.75-26.06Z" style="fill:#f7a9a0"></path><path d="M144.52,436.81c2-1.09,44-46.44,44.54-49.18,0,0,0,0,0-.07a5.29,5.29,0,0,0-1.3-2.07.09.09,0,0,0,0-.05c-2.23-2.74-7-7.59-12.48-13L164,362.73l-26.63,29.46,10.73,9.41s-8.32,24.55-8.56,27.62S142.53,437.9,144.52,436.81Z" style="fill:#ebebeb"></path><path d="M144.4,437.07c2-1.11,45-46.88,45.52-49.67.2-1-14.59-16-23-22.64L139.5,394.57s7.74,7.6,7.57,8.12c-1.35,4.25-7.59,23.92-7.8,26.7C139.05,432.49,142.38,438.19,144.4,437.07Z" style="fill:#367917"></path><path d="M143.17,434.71c6.93-7.92,35.65-39.19,43.11-46.49.06-.06.1,0,.05,0-6.71,8-35.68,39-43,46.57C143.14,435,143,434.88,143.17,434.71Z" style="fill:#263238"></path><path d="M140.35,424.89A8.39,8.39,0,0,1,146.5,422a8.18,8.18,0,0,1,5.73,2.07s0,.13-.09.09a9.77,9.77,0,0,0-11.7.82C140.38,425,140.29,425,140.35,424.89Z" style="fill:#263238"></path><path d="M145.87,405c2.81-3.14,7.21-5.72,11.52-5.32.17,0,.14.26,0,.3a58.39,58.39,0,0,0-11.19,5.43A.27.27,0,0,1,145.87,405Z" style="fill:#263238"></path><path d="M144.61,408.27c2.8-3.14,7.2-5.72,11.51-5.32.17,0,.14.26,0,.31a57.77,57.77,0,0,0-11.19,5.42A.27.27,0,0,1,144.61,408.27Z" style="fill:#263238"></path><path d="M143.34,411.52c2.81-3.14,7.21-5.72,11.51-5.32.17,0,.14.26,0,.31a57.77,57.77,0,0,0-11.19,5.42A.27.27,0,0,1,143.34,411.52Z" style="fill:#263238"></path><path d="M142.07,414.77c2.81-3.14,7.21-5.72,11.51-5.32.17,0,.14.26,0,.31a57.77,57.77,0,0,0-11.19,5.42A.27.27,0,0,1,142.07,414.77Z" style="fill:#263238"></path><path d="M165.21,372.31c3.21-3.46,8.6,1.52,5.39,5S162,375.79,165.21,372.31Z" style="fill:#263238"></path><path d="M139.3,404.69a23,23,0,0,0,7.43-.92l.53-.13c1-.26,2-.51,3-.73a.44.44,0,0,0,.27-.2.57.57,0,0,0,0-.59.12.12,0,0,0,0-.18c-.11-.08-.23-.17-.36-.25a.17.17,0,0,0-.11-.09,2.81,2.81,0,0,0-.44-.33,22.47,22.47,0,0,0-6.54-3.14,17.5,17.5,0,0,0-3.08-.66c-2.24-.29-5.32.53-5.46,3.29S137.13,404.51,139.3,404.69Zm-2.71-2.22c-3.09-3.41,2.31-4.06,3.95-3.8a24.34,24.34,0,0,1,3.13.8c.34.11.68.22,1,.34,1.68.57,3.29,1.32,4.92,2l0,0,.23.1-.27.05-.26.05c-.77.13-1.54.29-2.32.46l-2.41.52C142.52,403.44,138.3,404.35,136.59,402.47Z" style="fill:#263238"></path><path d="M150.5,402.73l0,0c1.17-.93,2.42-1.84,3.63-2.78a20.78,20.78,0,0,0,4.59-4.63c1.21-1.79,2-4.65-.08-6.18s-4.81.28-6,2.21a22.26,22.26,0,0,0-3.06,9.94c0,.18,0,.37,0,.55a.07.07,0,0,0,0,.05V402a1.9,1.9,0,0,0,0,.34c0,.08.06.12.14.12A.52.52,0,0,0,150.5,402.73Zm.13-1.47-.47.43-.17.14a2,2,0,0,1,.06-.23h0a57.33,57.33,0,0,1,1.87-6.15,23.65,23.65,0,0,1,1.34-2.94c.82-1.45,4.7-5.24,5.44-.69.4,2.5-3,5.22-4.59,6.58C153,399.37,151.78,400.29,150.63,401.26Z" style="fill:#263238"></path><path d="M125.23,313C127.46,324,162,360,162,360l-29.81,34.42s-54.64-55.28-51.25-79.62c2.94-21.16,34.63-106.28,34.63-106.28h36.56S123,302.17,125.23,313Z" style="fill:#37474f"></path><path d="M128.56,385.63c4.23-5.27,2.94-3.82,7.23-9,2.1-2.56,15.92-19.34,18.29-21.37.06-.05.15,0,.11.08-1.59,2.7-15.7,19.24-17.85,21.75-4.39,5.14-3.19,3.61-7.63,8.7A.1.1,0,1,1,128.56,385.63Z" style="fill:#263238"></path><path d="M120.06,308.49c.53-2.75,1.12-5.49,1.7-8.23q1.78-8.38,3.78-16.73,3.94-16.53,8.59-32.9c3.11-10.94,6.41-21.86,10.2-32.59q.71-2,1.44-4a.08.08,0,0,1,.16,0c-3.29,10.74-6.68,21.46-9.76,32.27s-5.9,21.58-8.58,32.45c-1.34,5.46-2.6,10.93-3.82,16.42q-.9,4-1.76,8.09a58,58,0,0,0-1.53,8.34,12.67,12.67,0,0,0,2.15,7.52c1.37,2.24,3,4.35,4.54,6.46,3.12,4.24,22.65,27.92,23.6,28.82.08.07,0,.18-.11.11-4-3.58-19-21.44-22.21-25.66q-2.38-3.15-4.65-6.36a25.38,25.38,0,0,1-3.64-6.4A15.22,15.22,0,0,1,120.06,308.49Z" style="fill:#263238"></path><path d="M130.1,387.71s-5.31,39.56-5.31,39.59c-.19,7.73-.49,14.51-1,18a.09.09,0,0,1,0,.05,5.28,5.28,0,0,1-.63,2.38.1.1,0,0,1,0,0c-2.34,1.5-64.18,1.8-66.34,1.08s-.29-6.93,2.1-8.85,26-12.63,26-12.63l5.69-39.53Z" style="fill:#f7a9a0"></path><path d="M56.79,448.86c2.16.72,64,.42,66.34-1.09l.05,0a5.62,5.62,0,0,0,.62-2.37l0-.06a173.84,173.84,0,0,0,1.42-18.06,113.71,113.71,0,0,1,1.43-14L87,413.12l-2.07,14.26S61.3,438.09,58.9,440,54.63,448.15,56.79,448.86Z" style="fill:#ebebeb"></path><path d="M56.51,449c2.2.71,65,.82,67.37-.72.91-.57,1-20.75,2.33-31.87l-39.68,0s-2.6,10.84-3.09,11.08c-4,1.91-22.66,10.8-24.82,12.55C56.2,441.92,54.31,448.24,56.51,449Z" style="fill:#367917"></path><path d="M57.39,446.44c10.52-.35,53-.76,63.41-.3.08,0,.08.06,0,.07-10.42.57-52.89.63-63.41.4C57.17,446.61,57.17,446.45,57.39,446.44Z" style="fill:#263238"></path><path d="M62.64,437.67A8.43,8.43,0,0,1,69,440.18a8.18,8.18,0,0,1,2.4,5.6c0,.06-.12.06-.13,0a9.75,9.75,0,0,0-8.58-8A.07.07,0,1,1,62.64,437.67Z" style="fill:#263238"></path><path d="M80.92,428.13c4.21-.1,9.1,1.35,11.75,4.77.1.13-.09.28-.21.21a58.13,58.13,0,0,0-11.61-4.46A.27.27,0,0,1,80.92,428.13Z" style="fill:#263238"></path><path d="M77.68,429.42c4.21-.09,9.1,1.35,11.75,4.77.1.14-.09.28-.21.22a58.16,58.16,0,0,0-11.61-4.47A.27.27,0,0,1,77.68,429.42Z" style="fill:#263238"></path><path d="M74.44,430.72c4.21-.1,9.1,1.35,11.75,4.77.1.13-.09.28-.21.21a58.78,58.78,0,0,0-11.61-4.47A.26.26,0,0,1,74.44,430.72Z" style="fill:#263238"></path><path d="M71.2,432c4.21-.09,9.1,1.35,11.75,4.77.1.14-.09.28-.22.22a57.84,57.84,0,0,0-11.6-4.47A.27.27,0,0,1,71.2,432Z" style="fill:#263238"></path><path d="M118,419.89c4.72,0,4.77,7.32,0,7.34S113.28,419.92,118,419.89Z" style="fill:#263238"></path><path d="M76.67,423.09a23.18,23.18,0,0,0,5.74,4.81l.47.29c.87.56,1.74,1.13,2.57,1.69a.4.4,0,0,0,.33.05.54.54,0,0,0,.42-.4.12.12,0,0,0,.14-.12,3.41,3.41,0,0,0-.06-.43.14.14,0,0,0,0-.14,3.31,3.31,0,0,0-.06-.55A22.63,22.63,0,0,0,84,421.37a17.91,17.91,0,0,0-1.63-2.7c-1.32-1.83-4-3.53-6.13-1.74S75.31,421.39,76.67,423.09Zm-.23-3.48c.37-4.59,4.54-1.09,5.47.28a23.53,23.53,0,0,1,1.55,2.83c.16.32.31.65.44,1,.73,1.62,1.28,3.3,1.89,5,0,0,0,0,0,.05l.09.23-.23-.16a1.46,1.46,0,0,0-.21-.16c-.62-.48-1.27-.93-1.91-1.37l-2-1.41C79.78,424.6,76.23,422.14,76.44,419.61Z" style="fill:#263238"></path><path d="M85.75,429.93h0c1.47.23,3,.52,4.51.76a21,21,0,0,0,6.52.19c2.14-.34,4.79-1.68,4.45-4.29s-3.49-3.31-5.7-2.86a22.27,22.27,0,0,0-9.35,4.56c-.14.11-.28.24-.42.36l0,0-.09.09-.25.22a.12.12,0,0,0,0,.18A.51.51,0,0,0,85.75,429.93Zm1.17-.9c-.22,0-.43,0-.64,0a.83.83,0,0,0-.22,0l.21-.11h0A57.12,57.12,0,0,1,92.05,426a23.92,23.92,0,0,1,3.06-1c1.62-.4,7-.15,4.23,3.5-1.56,2-5.84,1.41-8,1.15C89.88,429.44,88.41,429.2,86.92,429Z" style="fill:#263238"></path><path d="M116.15,208.47a101.67,101.67,0,0,0,.19,18.24c.76,7.65,1.72,14.42,2.74,15.26s6.93,4.66,8.88,5.85c0,0-18,54.61-22.67,72.81C98.55,347,85.91,408.44,85.91,408.44h43s9.59-57.62,15.3-82.74c4.9-21.54,23.68-86.15,23.68-86.15a37.51,37.51,0,0,0-1.52-31.07S116.14,208.44,116.15,208.47Z" style="fill:#37474f"></path><path d="M88.7,399.86c6.76,0,4.82-.12,11.58-.08,3.31,0,25,.17,28.12.73a.07.07,0,0,1,0,.14c-3.1.46-24.82-.06-28.13-.15-6.76-.17-4.82-.19-11.57-.44C88.57,400.06,88.58,399.87,88.7,399.86Z" style="fill:#263238"></path><path d="M116,239.81a82.1,82.1,0,0,1,11.86,7.95.14.14,0,0,1-.16.24c-4-2.52-8.13-5-12-7.71C115.41,240.08,115.71,239.65,116,239.81Z" style="fill:#263238"></path><path d="M119.32,210.11c0-.15.3-.14.27,0a144.86,144.86,0,0,0-1.51,14.5c-.15,2.25-.27,14.79,3.72,14.5.67,0,1.1-.64,1.35-1.59a15.88,15.88,0,0,0,.07-3.84c0-2.64,0-5.26.21-7.89a70.89,70.89,0,0,1,2.41-14.48.13.13,0,0,1,.25,0,134.26,134.26,0,0,0-1.94,20.21c0,3.26.85,8.31-2.57,8.29s-4.42-8.42-4.49-10.68A74,74,0,0,1,119.32,210.11Z" style="fill:#263238"></path><path d="M121.65,239.44a22.09,22.09,0,0,1,.47,2.68,5.71,5.71,0,0,1,0,2.14c0,.14-.21.12-.27,0a7.65,7.65,0,0,1-.58-2.17c-.17-.84-.36-1.66-.51-2.5A.44.44,0,0,1,121.65,239.44Z" style="fill:#263238"></path><path d="M134.06,372.34c.59-3.82,1.34-8.85,3-16.39.93-4.26,3.36-14.05,4.49-18.26.08-.29.5-.15.45.14-.7,3.85-2.71,13.28-3.5,17.12s-1.57,7.64-2.33,11.47c-1.5,7.57-4.5,25.95-4.67,27,0,.1-.17.06-.16,0C131.49,392.37,133.77,374.25,134.06,372.34Z" style="fill:#263238"></path><path d="M100.77,337c1.43-7.13,3.36-14.18,5.3-21.19,3.91-14.11,8.51-28,13.1-41.92q2-6,4-12c.66-2,3.9-12.8,4.3-13.83,0-.1.2-.06.17.05-.93,3.68-2.2,9-3.28,12.68s-2.22,7.18-3.33,10.76c-2.2,7-4.43,14.07-6.57,21.13-4.21,14-8.4,27.9-11.82,42.08-1,4-1.92,7.93-2.79,11.92s-1.62,8-2.46,12c0,.1-.2.08-.19,0C97.89,351.33,99.33,344.14,100.77,337Z" style="fill:#263238"></path><path d="M131,356.56c2.37-13.61,1.71-9.4,4.86-22.85s6.67-27,10.54-40.3,8.17-26.54,12.78-39.64A167.18,167.18,0,0,0,165,234.91c1.41-6.35,2.13-13.23.65-19.65a32.17,32.17,0,0,0-1.47-4.78c0-.1.12-.19.16-.08,5.17,12,1.82,25.23-2.12,37.11-2.16,6.51-4.46,13-6.59,19.49q-3.27,10-6.28,20.16c-4,13.38-7.65,26.83-11,40.39s-6.24,27.19-8.83,40.9-1.28,9.81-3.49,23.63c-.29,1.8-.52,3.61-.76,5.42,0,.1-.17.09-.16,0C126.83,383.8,128.63,370.16,131,356.56Z" style="fill:#263238"></path><path d="M156.38,226.62c-1.18-.3-2.44-.4-3.64-.59-1-.15-1.93-.32-2.89-.53a12.68,12.68,0,0,1-5.1-2.15c-1.66-1.29-2.5-3.25-3.3-5.14-.48-1.12-1-2.23-1.47-3.34-.24-.54-.48-1.07-.73-1.61a15.43,15.43,0,0,1-.91-1.93c0-.09-.18,0-.15,0a12.41,12.41,0,0,1,.41,1.39c.17.54.32,1.08.49,1.62.29,1,.59,1.92.9,2.87a22.75,22.75,0,0,0,2,5.06c1.77,2.82,4.94,4,8.1,4.36.91.11,1.83.18,2.74.23a20,20,0,0,0,3.46,0A.16.16,0,0,0,156.38,226.62Z" style="fill:#263238"></path><path d="M73.76,118.19l10.89,27.18a1,1,0,0,1-.73,1.63L69.4,149a2.38,2.38,0,0,1-2.22-1.23L56.29,120.54a1,1,0,0,1,.73-1.62l14.52-2A2.38,2.38,0,0,1,73.76,118.19Z" style="fill:#263238"></path><path d="M72,118.4l10.89,27.19c.41.79.09,1.51-.72,1.62l-14.53,2A2.37,2.37,0,0,1,65.46,148L54.57,120.76a1,1,0,0,1,.72-1.62l14.52-2A2.38,2.38,0,0,1,72,118.4Z" style="fill:#455a64"></path><path d="M68.22,120.23a1.25,1.25,0,0,0,1.43,1,1.23,1.23,0,0,0,1-1.42,1.24,1.24,0,0,0-1.42-1A1.26,1.26,0,0,0,68.22,120.23Z" style="fill:#263238"></path><path d="M127.74,159.91c-7.89,17.85-26,41.21-33.67,41.49-3.66.13-10.18,1.16-15.09-2.94-10.71-9-20.55-25.59-23.15-34.93-1-3.5,17.75-13.12,20.39-10.27,6.18,6.69,13.49,19.91,14.55,19.81,3.93-.39,19-13.59,29.6-22.87C133.18,138.92,130.88,152.8,127.74,159.91Z" style="fill:#f7a9a0"></path><path d="M53.37,146.89c.79-7.45,2.13-9.25-.54-15.89-1.76-4.36.27-7.35,4-4.19,6.09,5.18,7.1,15,6.46,18.52Z" style="fill:#f7a9a0"></path><path d="M57.72,168.1s-4.66-9.56-4.6-17.59c0-5.55,1.46-17.62,15.79-25.94,3.4-2,9.64-2.38,5.26,2.86-3.11,3.72-6.21,5.15-7.62,7.64,0,0,8,.43,9.84,3.91a72.62,72.62,0,0,1,4.18,9.44,15.27,15.27,0,0,1-1.7.94s1.62,3.32-.24,8.62Z" style="fill:#f7a9a0"></path><path d="M54,145.22c1.93-2.18,6.09-6.73,10.79-9.27,5.22-2.81,16-6.84,18.08-3,1.5,2.84-2.5,4.74-2.5,4.74s4.82-.72,5.61,2.14c.72,2.61-2.46,3.9-2.46,3.9s3,.06,3.21,2.71c.26,3.18-6.07,2.52-8.6,6C77.56,153.22,54,145.22,54,145.22Z" style="fill:#f7a9a0"></path><path d="M66.85,142a23.68,23.68,0,0,1,13.42-4.31c.12,0,.18.1.07.12A58,58,0,0,0,66.88,142,0,0,0,0,1,66.85,142Z" style="fill:#263238"></path><path d="M69.85,147.16a26.48,26.48,0,0,1,13.65-3.5c.12,0,.18.11.06.12a62.51,62.51,0,0,0-13.69,3.43S69.82,147.17,69.85,147.16Z" style="fill:#263238"></path><path d="M53.41,174.47c-.24-.58,28.52-16.13,28.52-16.13s8.73,13,9.52,13c3.43,0,21.77-17.19,29.78-24.75,8.56-8.08,16.12-2.7,7.67,13.48s-21.11,34.52-28.7,39.37c-2.21,1.41-11.39,5.11-17.52,2.12C68.48,194.65,53.41,174.47,53.41,174.47Z" style="fill:#367917"></path><path d="M79.48,190.35a1.47,1.47,0,0,1-.61.37,1.29,1.29,0,0,1-1.23-.24,1.68,1.68,0,0,0-1.89-.16,1.81,1.81,0,0,0-.63.67c-.13.25-.28.49-.41.75.25-.17.44-.35.67-.54a1.74,1.74,0,0,1,.61-.4,1.3,1.3,0,0,1,1.22.21,1.73,1.73,0,0,0,1.87.21,1.58,1.58,0,0,0,.65-.66c.13-.24.29-.48.41-.74A5.67,5.67,0,0,0,79.48,190.35Zm-6.69-23.26a1.52,1.52,0,0,1-.61.37,1.3,1.3,0,0,1-1.23-.25,1.7,1.7,0,0,0-1.89-.15,1.58,1.58,0,0,0-.62.67c-.14.26-.29.48-.4.74.23-.16.43-.35.65-.52a1.4,1.4,0,0,1,.61-.4,1.26,1.26,0,0,1,1.23.19,1.69,1.69,0,0,0,1.86.21,1.48,1.48,0,0,0,.65-.66c.14-.24.29-.48.41-.74C73.21,166.71,73,166.91,72.79,167.09Zm24.85,16.18a1.42,1.42,0,0,1-.61.38,1.3,1.3,0,0,1-1.23-.25,1.68,1.68,0,0,0-1.88-.15,1.74,1.74,0,0,0-.63.67,6.72,6.72,0,0,0-.4.75c.23-.18.44-.36.65-.54a1.64,1.64,0,0,1,.61-.4,1.26,1.26,0,0,1,1.23.21,1.72,1.72,0,0,0,1.87.2,1.65,1.65,0,0,0,.65-.66c.13-.25.28-.47.4-.74C98.07,182.9,97.86,183.09,97.64,183.27Zm12.62-24.9a1.33,1.33,0,0,1-1.84.13h0l-.51.45.11.09a1.72,1.72,0,0,0,1.88.2,1.65,1.65,0,0,0,.65-.66c.13-.25.28-.47.39-.73C110.69,158,110.49,158.19,110.26,158.37Zm-19.1,37c-.08-.27-.13-.54-.23-.81-.05.28-.07.56-.1.84a1.43,1.43,0,0,1-.14.71,1.24,1.24,0,0,1-1,.72A1.73,1.73,0,0,0,88.21,198a1.55,1.55,0,0,0,0,.93,8.18,8.18,0,0,0,.25.8,8,8,0,0,0,.08-.83,1.51,1.51,0,0,1,.16-.7,1.25,1.25,0,0,1,1-.69,1.72,1.72,0,0,0,1.45-1.24A1.63,1.63,0,0,0,91.16,195.38Zm18.7-22.77c-.09-.27-.15-.55-.25-.82,0,.29-.06.57-.09.85a1.43,1.43,0,0,1-.15.71,1.23,1.23,0,0,1-1,.72,1.72,1.72,0,0,0-1.47,1.18,1.63,1.63,0,0,0,0,.93,8.18,8.18,0,0,0,.25.8c0-.28,0-.55.08-.83a1.62,1.62,0,0,1,.17-.71,1.24,1.24,0,0,1,1-.68,1.67,1.67,0,0,0,1.41-2.15Zm-25-.1c-.08-.28-.15-.55-.25-.81,0,.28-.06.56-.09.84a1.73,1.73,0,0,1-.14.71,1.31,1.31,0,0,1-1,.73,1.69,1.69,0,0,0-1.47,1.17,1.73,1.73,0,0,0,0,.93c.08.27.15.54.25.8,0-.27.06-.55.09-.84a1.6,1.6,0,0,1,.16-.7,1.33,1.33,0,0,1,1-.69,1.7,1.7,0,0,0,1.44-1.22A1.78,1.78,0,0,0,84.88,172.51Zm23,19.66a1.67,1.67,0,0,0-.92,0c-.27.08-.53.14-.81.24.3.06.56.06.84.09a1.75,1.75,0,0,1,.54.08c.12-.14.25-.28.37-.43ZM98.59,168.5a1.54,1.54,0,0,1-.7-.17,1.28,1.28,0,0,1-.5-.48l-.52.4a1.48,1.48,0,0,0,.83.58,1.63,1.63,0,0,0,.93,0,8.18,8.18,0,0,0,.8-.25C99.14,168.54,98.88,168.53,98.59,168.5Zm-29.7,13.43a1.62,1.62,0,0,1-.71-.17,1.27,1.27,0,0,1-.68-1,1.71,1.71,0,0,0-1.23-1.43,1.67,1.67,0,0,0-.92,0c-.27.08-.54.14-.82.24.3,0,.57.06.85.09a1.55,1.55,0,0,1,.71.15,1.28,1.28,0,0,1,.73,1A1.69,1.69,0,0,0,68,182.26a1.6,1.6,0,0,0,.92,0,6.8,6.8,0,0,0,.81-.25C69.44,182,69.17,182,68.89,181.93Zm52-16.21a1.5,1.5,0,0,1-.69-.17,1.32,1.32,0,0,1-.7-1.05,1.68,1.68,0,0,0-1.23-1.43,1.56,1.56,0,0,0-.91,0,6.8,6.8,0,0,0-.81.25c.29,0,.57.05.84.08a1.57,1.57,0,0,1,.72.14,1.28,1.28,0,0,1,.72,1,1.64,1.64,0,0,0,2.1,1.46c.28-.08.54-.14.81-.24A7.63,7.63,0,0,0,120.89,165.72Z" style="fill:#fff"></path><path d="M59.82,177.68c10.5-4.5,20.85-10.81,22.74-11.78.09-.05,0-.19-.08-.14-1.8,1.05-14.42,7-22.76,11.77C59.63,177.58,59.71,177.72,59.82,177.68Z" style="fill:#263238"></path><path d="M128.9,160.09c-8.45,16.19-21.11,34.52-28.7,39.37-2,1.28-9.86,4.49-15.87,2.74l44.36-59.29C133,143.13,134.63,149.12,128.9,160.09Z" style="opacity:0.2"></path><path d="M114.49,187.93l-1.13,24,61-2.92s-15.95-51.82-31.15-64.45c-7.6-6.31-15.32-4.73-19.61,1-1.08,1.44-13.12,21.36-13.68,29.14C109.39,181.55,114.49,187.93,114.49,187.93Z" style="fill:#367917"></path><path d="M130.43,209.65a1.78,1.78,0,0,0-.92,0c-.27.08-.54.14-.8.24a5.85,5.85,0,0,0,.83.09,1.66,1.66,0,0,1,.71.14,1.32,1.32,0,0,1,.72.95l.68,0A1.7,1.7,0,0,0,130.43,209.65Zm-9.54-43.93a1.5,1.5,0,0,1-.69-.17,1.32,1.32,0,0,1-.7-1.05,1.68,1.68,0,0,0-1.23-1.43,1.56,1.56,0,0,0-.91,0,6.8,6.8,0,0,0-.81.25c.29,0,.57.05.84.08a1.57,1.57,0,0,1,.72.14,1.28,1.28,0,0,1,.72,1,1.64,1.64,0,0,0,2.1,1.46c.28-.08.54-.14.81-.24A7.63,7.63,0,0,0,120.89,165.72Zm18.65,21.44a1.39,1.39,0,0,1-.7-.17,1.25,1.25,0,0,1-.69-1,1.66,1.66,0,0,0-2.15-1.41c-.27.08-.54.14-.81.24a8,8,0,0,0,.84.08,1.69,1.69,0,0,1,.71.16,1.27,1.27,0,0,1,.73,1,1.67,1.67,0,0,0,1.18,1.46,1.6,1.6,0,0,0,.92,0c.27-.09.54-.13.8-.23A7.53,7.53,0,0,0,139.54,187.16ZM160.83,207a1.35,1.35,0,0,1-.69-.16,1.3,1.3,0,0,1-.7-1,1.64,1.64,0,0,0-1.23-1.43,1.68,1.68,0,0,0-.92,0c-.26.08-.53.14-.8.24.28,0,.56.05.84.09a1.75,1.75,0,0,1,.72.13,1.3,1.3,0,0,1,.72,1,1.64,1.64,0,0,0,1.17,1.46,1.6,1.6,0,0,0,.92,0c.29-.08.55-.15.82-.25C161.39,207.08,161.12,207.08,160.83,207ZM151,163.52a1.42,1.42,0,0,1-.7-.17,1.29,1.29,0,0,1-.69-1,1.71,1.71,0,0,0-1.23-1.44,1.67,1.67,0,0,0-.92,0c-.26.08-.55.14-.81.24.28.05.57.06.84.09a1.57,1.57,0,0,1,.72.14,1.29,1.29,0,0,1,.73,1,1.66,1.66,0,0,0,1.17,1.47,1.6,1.6,0,0,0,.92,0,8.36,8.36,0,0,0,.81-.25C151.56,163.55,151.28,163.55,151,163.52Zm8.89,26.7c-.08-.27-.14-.53-.24-.8a5.85,5.85,0,0,0-.09.83,1.66,1.66,0,0,1-.15.71,1.25,1.25,0,0,1-1,.73,1.71,1.71,0,0,0-1.47,1.18,1.6,1.6,0,0,0,0,.92c.08.27.13.55.23.82.05-.29.07-.57.1-.85a1.54,1.54,0,0,1,.16-.7,1.3,1.3,0,0,1,1-.69,1.66,1.66,0,0,0,1.43-1.23A1.68,1.68,0,0,0,159.89,190.22Zm-23.62-21.87a8.18,8.18,0,0,0-.25-.8c0,.28-.05.55-.09.83a1.53,1.53,0,0,1-.13.71,1.25,1.25,0,0,1-1,.73,1.66,1.66,0,0,0-1.46,1.18,1.6,1.6,0,0,0,0,.92c.08.27.15.54.25.81.05-.28.05-.56.09-.84a1.54,1.54,0,0,1,.16-.7,1.29,1.29,0,0,1,1.05-.69,1.71,1.71,0,0,0,1.44-1.23A1.68,1.68,0,0,0,136.27,168.35Zm-8,29.51c-.08-.27-.14-.54-.24-.81-.05.29-.06.57-.09.85a1.73,1.73,0,0,1-.14.71,1.26,1.26,0,0,1-1,.71,1.75,1.75,0,0,0-1.47,1.18,1.55,1.55,0,0,0,0,.93c.08.26.15.54.25.81,0-.29,0-.57.08-.84a1.51,1.51,0,0,1,.16-.7,1.29,1.29,0,0,1,1-.69,1.69,1.69,0,0,0,1.45-1.24A1.73,1.73,0,0,0,128.29,197.86ZM138,153a1.55,1.55,0,0,1-.6.39,1.32,1.32,0,0,1-1.24-.26,1.65,1.65,0,0,0-1.87-.14,1.58,1.58,0,0,0-.64.67,7.23,7.23,0,0,0-.4.73c.24-.16.44-.35.66-.53a1.41,1.41,0,0,1,.6-.4,1.28,1.28,0,0,1,1.23.2,1.74,1.74,0,0,0,1.88.21,1.84,1.84,0,0,0,.65-.65c.13-.26.28-.49.39-.75C138.47,152.58,138.26,152.77,138,153Zm-15,30.61a1.44,1.44,0,0,1-.61.38,1.29,1.29,0,0,1-1.23-.25,1.69,1.69,0,0,0-1.88-.15,1.77,1.77,0,0,0-.64.67c-.13.25-.28.49-.4.75l.66-.54a1.84,1.84,0,0,1,.6-.4,1.31,1.31,0,0,1,1.23.21,1.72,1.72,0,0,0,1.88.2,1.51,1.51,0,0,0,.64-.66,7.43,7.43,0,0,0,.4-.73A8.22,8.22,0,0,0,123,183.56Zm48.35,16.5a.8.8,0,0,0-.23.11,1.64,1.64,0,0,0-.64.67c-.12.25-.28.48-.4.75.24-.18.44-.37.66-.54a1.54,1.54,0,0,1,.6-.4.73.73,0,0,1,.2-.05C171.47,200.42,171.4,200.25,171.34,200.06Zm-15.53-22.19a1.53,1.53,0,0,1-.62.38A1.28,1.28,0,0,1,154,178a1.68,1.68,0,0,0-1.89-.15,1.61,1.61,0,0,0-.63.67c-.13.25-.29.48-.4.75.24-.18.43-.37.65-.54a1.57,1.57,0,0,1,.61-.4,1.26,1.26,0,0,1,1.23.2,1.69,1.69,0,0,0,1.87.2,1.56,1.56,0,0,0,.65-.65c.13-.25.28-.47.41-.74A7,7,0,0,0,155.81,177.87ZM146.68,200a1.56,1.56,0,0,1-.6.37,1.31,1.31,0,0,1-1.24-.24A1.67,1.67,0,0,0,143,200a1.73,1.73,0,0,0-.63.67c-.14.25-.28.49-.4.74a8.22,8.22,0,0,0,.65-.52,1.4,1.4,0,0,1,.61-.4,1.25,1.25,0,0,1,1.23.2,1.71,1.71,0,0,0,1.86.21,1.61,1.61,0,0,0,.66-.66c.14-.25.28-.49.4-.74A8.06,8.06,0,0,0,146.68,200ZM116,206.47a1.49,1.49,0,0,1-.6.37,1.29,1.29,0,0,1-1.23-.25,1.33,1.33,0,0,0-.55-.29l0,.72a.49.49,0,0,1,.15.1,1.65,1.65,0,0,0,2.53-.44c.13-.25.28-.49.4-.75A8.33,8.33,0,0,0,116,206.47Z" style="fill:#fff"></path><path d="M134.63,184.14a61.19,61.19,0,0,0-9,1.43c-1.47.37-2.92.8-4.36,1.27-.72.23-1.45.44-2.17.65a9.75,9.75,0,0,1-2.33.42.06.06,0,0,0,0,.11,15.23,15.23,0,0,0,2.24,0,15.49,15.49,0,0,0,2.14-.39c1.49-.36,3-.79,4.47-1.16,3-.76,6-1.52,9.08-2.05C134.8,184.36,134.77,184.12,134.63,184.14Z" style="fill:#263238"></path><path d="M142.13,186.87a65.56,65.56,0,0,0-7.54-.4c-1.26,0-2.51.09-3.77.2-.6.05-1.2.12-1.8.19s-1.3.25-2,.32c-.07,0-.07.12,0,.11.63,0,1.26,0,1.88,0l1.89,0,3.76-.07c2.52-.07,5-.12,7.54-.1C142.27,187.08,142.26,186.88,142.13,186.87Z" style="fill:#263238"></path><path d="M150.22,150.4c19.9,19,37.45,59.75,28.53,64.09-8.15,3.95-34.68,1.94-45.65-.12-3.22-.61,2-25.6,5.45-25,4.16.78,14.76,1.78,15.19,1.73.9-.1-10.15-27.24-13.75-37.68C135,138.91,142.75,143.25,150.22,150.4Z" style="fill:#f7a9a0"></path><path d="M105.46,185.33a3.91,3.91,0,0,0,.54,4.43,5.77,5.77,0,0,0-2.64,2.92c-.79,2.25,2.39,4.49,2.39,4.49a7.11,7.11,0,0,0-2.29,3.53c-.55,2.23,2.34,4.94,2.34,4.94a6.25,6.25,0,0,0-.06,4.37c1.51,3.73,7.56,4.81,11.4,5.53s15.4-.83,17.64-.91l4.83-24.6s-16.29-8.13-20.93-8.34C114.78,181.52,107,182.69,105.46,185.33Z" style="fill:#f7a9a0"></path><path d="M106.25,189.4c4.19-.82,8.4-.34,12.62-.11a.08.08,0,0,1,0,.15c-4.2-.28-8.4.27-12.6.16A.1.1,0,0,1,106.25,189.4Z" style="fill:#263238"></path><path d="M105.89,196.86a11.36,11.36,0,0,1,2.91.11c1,.11,2,.23,3.07.37,2,.29,4.09.62,6.12,1,.09,0,.09.16,0,.15-2-.28-4.08-.53-6.13-.73l-3.09-.26a13.38,13.38,0,0,1-2.89-.37A.15.15,0,0,1,105.89,196.86Z" style="fill:#263238"></path><path d="M105.89,205.65a7.71,7.71,0,0,1,2.61.23l2.8.44c1.86.27,3.72.55,5.59.76a.08.08,0,1,1,0,.15c-1.9-.21-3.8-.39-5.7-.61l-2.8-.34a7.37,7.37,0,0,1-2.51-.54S105.85,205.66,105.89,205.65Z" style="fill:#263238"></path><path d="M152.72,190.4c1.25-1.17-10.34-26.65-13.73-38.35s2.1-11.31,11.23-2.19c9.77,9.76,26.3,31.59,30.93,54.68,1.45,7.21,3.18,12.33-13.64,12.84a192.3,192.3,0,0,1-29.28-1.14l2.38-26.74S152.36,190.74,152.72,190.4Z" style="fill:#367917"></path><path d="M146.68,200a1.56,1.56,0,0,1-.6.37,1.31,1.31,0,0,1-1.24-.24A1.67,1.67,0,0,0,143,200a1.73,1.73,0,0,0-.63.67c-.14.25-.28.49-.4.74a8.22,8.22,0,0,0,.65-.52,1.4,1.4,0,0,1,.61-.4,1.25,1.25,0,0,1,1.23.2,1.71,1.71,0,0,0,1.86.21,1.61,1.61,0,0,0,.66-.66c.14-.25.28-.49.4-.74A8.06,8.06,0,0,0,146.68,200Zm9.13-22.13a1.53,1.53,0,0,1-.62.38A1.28,1.28,0,0,1,154,178a1.68,1.68,0,0,0-1.89-.15,1.61,1.61,0,0,0-.63.67c-.13.25-.29.48-.4.75.24-.18.43-.37.65-.54a1.57,1.57,0,0,1,.61-.4,1.26,1.26,0,0,1,1.23.2,1.69,1.69,0,0,0,1.87.2,1.56,1.56,0,0,0,.65-.65c.13-.25.28-.47.41-.74A7,7,0,0,0,155.81,177.87Zm19,22.32a1.5,1.5,0,0,1-.62.37,1.24,1.24,0,0,1-1.22-.25,1.7,1.7,0,0,0-1.89-.14,1.64,1.64,0,0,0-.64.67c-.12.25-.28.48-.4.75.24-.18.44-.37.66-.54a1.54,1.54,0,0,1,.6-.4,1.23,1.23,0,0,1,1.23.2,1.65,1.65,0,0,0,2.53-.45c.13-.25.28-.47.4-.74A8.34,8.34,0,0,0,174.84,200.19Zm-23.18,14.7a1.59,1.59,0,0,1-.61.37,1.29,1.29,0,0,1-1.23-.25,1.69,1.69,0,0,0-1.88-.16,1.79,1.79,0,0,0-.64.68c-.12.24-.28.48-.4.74.24-.16.44-.35.66-.53a1.66,1.66,0,0,1,.6-.4,1.25,1.25,0,0,1,1.23.2,1.74,1.74,0,0,0,1.88.21,1.71,1.71,0,0,0,.65-.66c.13-.24.28-.48.4-.74A6.76,6.76,0,0,0,151.66,214.89Zm.14-63.41a1.45,1.45,0,0,0-.32.44,7.41,7.41,0,0,0-.4.74c.24-.17.43-.36.65-.53a1.67,1.67,0,0,1,.4-.31Zm12,14.94a1.61,1.61,0,0,0-.95,2,6.77,6.77,0,0,0,.25.8c0-.27,0-.55.08-.83a1.54,1.54,0,0,1,.17-.7,1.21,1.21,0,0,1,.86-.65Zm-3.93,23.8c-.08-.27-.14-.53-.24-.8a5.85,5.85,0,0,0-.09.83,1.66,1.66,0,0,1-.15.71,1.25,1.25,0,0,1-1,.73,1.71,1.71,0,0,0-1.47,1.18,1.6,1.6,0,0,0,0,.92c.08.27.13.55.23.82.05-.29.07-.57.1-.85a1.54,1.54,0,0,1,.16-.7,1.3,1.3,0,0,1,1-.69,1.66,1.66,0,0,0,1.43-1.23A1.68,1.68,0,0,0,159.89,190.22Zm16.2,20.17c-.08-.27-.15-.54-.25-.81-.05.28-.06.56-.09.84a1.55,1.55,0,0,1-.14.71,1.27,1.27,0,0,1-1,.72,1.67,1.67,0,0,0-1.48,2.11c.08.26.15.53.25.8,0-.28.06-.56.09-.83a1.54,1.54,0,0,1,.16-.7,1.25,1.25,0,0,1,1-.69,1.71,1.71,0,0,0,1.44-1.23A1.77,1.77,0,0,0,176.09,210.39ZM151,163.52a1.42,1.42,0,0,1-.7-.17,1.29,1.29,0,0,1-.69-1,1.71,1.71,0,0,0-1.23-1.44,1.67,1.67,0,0,0-.92,0c-.26.08-.55.14-.81.24.28.05.57.06.84.09a1.57,1.57,0,0,1,.72.14,1.29,1.29,0,0,1,.73,1,1.66,1.66,0,0,0,1.17,1.47,1.6,1.6,0,0,0,.92,0,8.36,8.36,0,0,0,.81-.25C151.56,163.55,151.28,163.55,151,163.52Zm21.66,21.22a1.44,1.44,0,0,1-.7-.15,1.28,1.28,0,0,1-.69-1.05,1.65,1.65,0,0,0-2.15-1.41c-.27.08-.54.14-.8.24a7.53,7.53,0,0,0,.83.08,1.92,1.92,0,0,1,.72.15,1.3,1.3,0,0,1,.72,1,1.71,1.71,0,0,0,1.17,1.47,1.63,1.63,0,0,0,.93,0c.28-.08.55-.14.82-.24C173.22,184.79,172.94,184.78,172.66,184.74ZM160.83,207a1.35,1.35,0,0,1-.69-.16,1.3,1.3,0,0,1-.7-1,1.64,1.64,0,0,0-1.23-1.43,1.68,1.68,0,0,0-.92,0c-.26.08-.53.14-.8.24.28,0,.56.05.84.09a1.75,1.75,0,0,1,.72.13,1.3,1.3,0,0,1,.72,1,1.64,1.64,0,0,0,1.17,1.46,1.6,1.6,0,0,0,.92,0c.29-.08.55-.15.82-.25C161.39,207.08,161.12,207.08,160.83,207Z" style="fill:#fff"></path><path d="M144.15,215.74c1.64-10.61,1.76-22,1.92-24,0-.1-.15-.1-.15,0-.06,1.95-1.6,15-1.93,24C144,215.84,144.13,215.84,144.15,215.74Z" style="fill:#263238"></path><path d="M165.6,191.86a21.73,21.73,0,0,0-3.2-.5c-1-.12-2-.27-3-.39l-1.29-.17.12,0,1.71-.32c.56-.12,1.13-.27,1.7-.34.09,0,.08-.17,0-.15-.57.1-1.14.13-1.72.19l-1.78.21c-.52.07-1,.16-1.55.24l-2.89-.31c-.5-1.86-1.26-3.7-1.92-5.51s-1.42-3.78-2.17-5.66-1.5-3.67-2.31-5.48c-.41-.91-2.62-6.49-3.32-7.94,0-.09-.17,0-.13.07.44,1.48,2.69,7.21,3,8.14.24.68.49,1.35.74,2l-.09-.1c-.41-.49-.82-1-1.22-1.48-.82-1-1.64-2-2.36-3.1-.06-.09-.2,0-.14.1.68,1.13,1.35,2.27,2.08,3.37.36.54.74,1.09,1.14,1.61a9.33,9.33,0,0,0,1.25,1.48h0l.6,1.67q1,2.79,2.06,5.58c.62,1.7,1.18,3.46,1.87,5.14-2-.17-3.94-.3-5.92-.45l-3-.21c-1.08-.07-2.2,0-3.27-.15-.09,0-.12.14,0,.14,1.07.07,2.15.35,3.21.48l3,.38c2.11.25,4.22.52,6.33.75s4.17.35,6.26.49l3.15.2a20.74,20.74,0,0,0,3.05.11C165.65,192,165.65,191.88,165.6,191.86Z" style="fill:#263238"></path><path d="M171.47,217.2c-9.08.12-25.44-.32-33-1-.1,0-.11.13,0,.14a130.33,130.33,0,0,0,33.06,1.18A.18.18,0,0,0,171.47,217.2Z" style="fill:#263238"></path><path d="M136.06,145.25c-.18,1-4.55,7.62-9.06,7.64-1.47,0-1.85-8-1.85-8l-.16-.59-2.28-8.2,9.42-6.74,1.37-.9s.47,2.28,1,5.13c0,.13.05.27.08.41s.07.31.09.46c.09.43.18.86.26,1.29s.13.65.18,1l.18,1A54.37,54.37,0,0,1,136.06,145.25Z" style="fill:#f7a9a0"></path><path d="M134.54,133.58A17.09,17.09,0,0,1,125,144.29l-2.28-8.2,9.42-6.74,1.37-.9S134,130.73,134.54,133.58Z" style="fill:#263238"></path><path d="M110.07,123.75c-.85,14.91,8,17.1,11.2,17.28,2.92.16,12.87.35,15.26-14.39s-4.27-19.84-10.93-20.57S110.92,108.84,110.07,123.75Z" style="fill:#f7a9a0"></path><path d="M112.51,119.76a9,9,0,0,0,1-.16,1.65,1.65,0,0,0,1-.35.54.54,0,0,0,0-.65,1.31,1.31,0,0,0-1.28-.38,1.89,1.89,0,0,0-1.25.61A.57.57,0,0,0,112.51,119.76Z" style="fill:#263238"></path><path d="M122.3,120.38a8.68,8.68,0,0,1-1-.27,1.65,1.65,0,0,1-1-.47.54.54,0,0,1,0-.65,1.31,1.31,0,0,1,1.31-.23,1.92,1.92,0,0,1,1.17.75A.57.57,0,0,1,122.3,120.38Z" style="fill:#263238"></path><path d="M120.09,124s.08,0,.07.09c-.11,1-.07,2.19.82,2.6,0,0,0,.06,0,.06C119.86,126.53,119.82,125,120.09,124Z" style="fill:#263238"></path><path d="M121.08,123c1.64,0,1.51,3.29,0,3.28S119.71,123,121.08,123Z" style="fill:#263238"></path><path d="M121.72,123.24c.28.2.55.54.89.59s.71-.28,1-.6c0,0,.05,0,.05,0,0,.63-.28,1.27-1,1.33s-1-.51-1.17-1.15C121.5,123.33,121.61,123.16,121.72,123.24Z" style="fill:#263238"></path><path d="M114.26,123.59s-.08,0-.08.08c0,1-.18,2.18-1.11,2.49a0,0,0,0,0,0,.06C114.21,126.1,114.42,124.55,114.26,123.59Z" style="fill:#263238"></path><path d="M113.39,122.49c-1.63-.18-1.87,3.1-.36,3.26S114.76,122.65,113.39,122.49Z" style="fill:#263238"></path><path d="M112.69,122.66c-.27.15-.55.45-.86.45s-.6-.38-.8-.74c0,0,0,0,0,0-.07.62.09,1.29.68,1.45s1-.36,1.18-1C112.88,122.78,112.8,122.6,112.69,122.66Z" style="fill:#263238"></path><path d="M119.84,132.12c-.24.24-.48.56-.85.6a2.65,2.65,0,0,1-1.1-.26,0,0,0,0,0,0,.06,1.34,1.34,0,0,0,1.29.54,1.08,1.08,0,0,0,.8-.9C120,132.1,119.88,132.08,119.84,132.12Z" style="fill:#263238"></path><path d="M115.79,128.22s-.29,1.5-.33,2.22c0,.07.17.11.41.13h0a3.42,3.42,0,0,0,3.37-1.1c.06-.06,0-.14-.1-.1a5.14,5.14,0,0,1-3.15.72c0-.2.58-2.56.47-2.57a6,6,0,0,0-1.64.28c.51-3.16,1.53-6.2,2-9.35a.1.1,0,0,0-.19,0,52,52,0,0,0-2.58,10C114,128.78,115.5,128.32,115.79,128.22Z" style="fill:#263238"></path><path d="M115.91,130.09a4.12,4.12,0,0,0,1.44,1.54,1.85,1.85,0,0,0,1.1.25c.85-.08,1-.82.94-1.48a4.28,4.28,0,0,0-.2-1A5.39,5.39,0,0,1,115.91,130.09Z" style="fill:#263238"></path><path d="M117.35,131.63a1.85,1.85,0,0,0,1.1.25c.85-.08,1-.82.94-1.48A1.92,1.92,0,0,0,117.35,131.63Z" style="fill:#ff9abb"></path><path d="M134.94,130.43a6.29,6.29,0,0,1-2.86-5.48,15.91,15.91,0,0,1-5.91-6c.07.32.53,2.67.81,3.86a16.43,16.43,0,0,1-11.32-10.45,17.35,17.35,0,0,0-4.8,5.75s.6-6,4-9.67a9.32,9.32,0,0,1,9.05-3.11,13,13,0,0,1,12.55,5.4C141.84,118.16,134.94,130.43,134.94,130.43Z" style="fill:#263238"></path><path d="M120,120.46a17,17,0,0,0,4.63,2.31s0,0,0,0a14.57,14.57,0,0,1-6.44-5,14.42,14.42,0,0,1-1.71-3.13,10.11,10.11,0,0,1-.84-3.83c0-.1-.14-.1-.14,0a11.61,11.61,0,0,0,.32,3.9,10.32,10.32,0,0,0,1.73,3.42,11.52,11.52,0,0,0,2.44,2.34Z" style="fill:#263238"></path><path d="M132.19,127.65s3.12-4.75,5.27-3.65-.1,7.92-2.56,8.92a2.53,2.53,0,0,1-3.42-1.26Z" style="fill:#f7a9a0"></path><path d="M136.76,125.94s.05,0,0,.06a6.39,6.39,0,0,0-3.18,4.09,1.39,1.39,0,0,1,2.07-.44c.05,0,0,.1,0,.09a1.55,1.55,0,0,0-1.69.59,7.77,7.77,0,0,0-.78,1.41c-.08.16-.36.08-.31-.1l0,0C132.76,129.38,134.39,126.23,136.76,125.94Z" style="fill:#263238"></path><path d="M125.25,106.94c.94,1.34,9.57.56,12.07-5.91s-3.84-12.24-9.83-7.53C123.7,96.47,123.25,104.12,125.25,106.94Z" style="fill:#263238"></path><path d="M135.8,93.31a9.56,9.56,0,0,0-6.06-1.75,5.76,5.76,0,0,0-4.89,3.06,11.53,11.53,0,0,0-1.21,6.09,17.47,17.47,0,0,0,.44,3.2,8.76,8.76,0,0,0,1.17,3,7.5,7.5,0,0,1-1.74-2.86,14.16,14.16,0,0,1-.82-3.29A11.29,11.29,0,0,1,123.78,94a6.42,6.42,0,0,1,5.93-3.41A8.45,8.45,0,0,1,135.8,93.31Z" style="fill:#263238"></path><path d="M135.33,115.81c-.54,1.54,5.11,8.11,11.82,6.39s7.75-10.22.43-12.37C143,108.47,136.47,112.55,135.33,115.81Z" style="fill:#263238"></path><path d="M152.56,116.49a9.54,9.54,0,0,0-2.1-6,5.77,5.77,0,0,0-5.32-2.2,11.55,11.55,0,0,0-5.66,2.55,16.94,16.94,0,0,0-2.35,2.21,8.6,8.6,0,0,0-1.8,2.72,7.75,7.75,0,0,1,1.32-3.08,14.29,14.29,0,0,1,2.21-2.58,11.19,11.19,0,0,1,6.14-3,6.65,6.65,0,0,1,3.54.53,6.78,6.78,0,0,1,2.68,2.32A8.43,8.43,0,0,1,152.56,116.49Z" style="fill:#263238"></path></g></svg>