<svg xmlns="http://www.w3.org/2000/svg" viewBox="0 0 500 500"><g id="freepik--background-simple--inject-4"><path d="M67.93,167.09s-27.88,72,11.3,144.5S199.11,422.39,263.7,455.14s131.66,16.8,163.53-36.84-11.84-91.93-11.9-168.42,11.45-96.74-30-161.36-143.06-78.93-219.9-31S67.93,167.09,67.93,167.09Z" style="fill:#fff;opacity:0.7000000000000001"></path><path d="M132,427.57c23.6,24.92,81.54,15.79,106.64,0C320.14,376.32,462.92,291,469.39,167.4c2.75-52.53-43.58-80.12-62.93-88.21C360,59.75,309,53.92,258.65,51.67c-52.57-2.35-109-.52-156.31,25.13C84.4,86.51,67.48,99,55.9,116c-11.76,17.28-18.53,37.86-20.33,58.63-2.89,33.5,6.12,67.09,19.75,97.83s31.8,59.2,48.48,88.4C114.69,379.89,112.16,406.58,132,427.57Z" style="fill:#367917"></path><path d="M132,427.57c23.6,24.92,81.54,15.79,106.64,0C320.14,376.32,462.92,291,469.39,167.4c2.75-52.53-43.58-80.12-62.93-88.21C360,59.75,309,53.92,258.65,51.67c-52.57-2.35-109-.52-156.31,25.13C84.4,86.51,67.48,99,55.9,116c-11.76,17.28-18.53,37.86-20.33,58.63-2.89,33.5,6.12,67.09,19.75,97.83s31.8,59.2,48.48,88.4C114.69,379.89,112.16,406.58,132,427.57Z" style="fill:#fff;opacity:0.7000000000000001"></path></g></svg>