<svg xmlns="http://www.w3.org/2000/svg" viewBox="0 0 500 500"><g id="freepik--background-simple--inject-63"><path d="M475,236.23c-4.06-20-15.82-34.72-33.95-44.16-19.28-10-44.48-14-65.35-7.89s-41.45,14.82-63.19,15.1c-29.88.4-57.64-15.29-81.25-33.61s-45-39.86-71-54.54-58.86-21.67-85.74-8.61c-20.68,10-39.27,29.6-44.8,51.92S21.55,201,27.15,227.22C46.06,316,148,390.42,240.07,392.64l101.69-12.85c43.4-5.5,86.17-21.22,109.06-44.9S481.53,268.51,475,236.23Z" style="fill:#ebebeb"></path></g><g id="freepik--Floor--inject-63"><path d="M482,453.36c0,.14-103.87.26-232,.26s-232-.12-232-.26,103.85-.26,232-.26S482,453.22,482,453.36Z" style="fill:#263238"></path></g><g id="freepik--Plant--inject-63"><path d="M105.79,359.85a48.91,48.91,0,0,0-46.65-12.8,84.93,84.93,0,0,0,47.2,14.74" style="fill:#92E3A9"></path><path d="M90,303.82c2-13.75-3.4-29.21-13.69-39.2-.34,13.62,5.41,28.95,13.69,39.2" style="fill:#92E3A9"></path><path d="M98.19,329.79a73.37,73.37,0,0,0-33.71-32.22,46.33,46.33,0,0,0,33.84,32.36" style="fill:#92E3A9"></path><path d="M99.9,334.8c-8.31.23-16.71-.06-24.74-2.19S59.44,326.4,54.1,320.05A82.53,82.53,0,0,1,99.77,334" style="fill:#92E3A9"></path><path d="M95.68,318.29c4.22-15.79,11.17-26.72,23.59-35.57a32.84,32.84,0,0,1-23.59,35.57" style="fill:#92E3A9"></path><path d="M127,345.53a23.37,23.37,0,0,0-14.2-21.65c.69,8.15,7.1,17.59,14.2,21.65" style="fill:#92E3A9"></path><path d="M131,332.22a34.83,34.83,0,0,1,22.82-29.72c-2.86,13.2-10.5,24.19-22.82,29.72" style="fill:#92E3A9"></path><path d="M125,355.85c2.93-4.19,7.71-6.79,12.65-8.09s10.11-1.41,15.22-1.51a35.58,35.58,0,0,1-27.48,11.44" style="fill:#92E3A9"></path><path d="M119.08,389.52a39,39,0,0,1,47.6,22.55c-17.29-3.28-34.35-11-47.6-22.55" style="fill:#92E3A9"></path><path d="M100.1,377.82c2.87,8.49,2.32,18.75-4.07,26.07a31.16,31.16,0,0,1,4.07-26.07" style="fill:#92E3A9"></path><path d="M88.88,373.1A32,32,0,0,1,71.24,399a2,2,0,0,1-1.56.26c-.78-.32-.85-1.38-.75-2.22,1.25-10.88,9.31-21.4,19.95-24" style="fill:#92E3A9"></path><path d="M81.55,372a26.19,26.19,0,0,1-38.26.19c12.16-1.33,26.2-2.22,38.26-.19" style="fill:#92E3A9"></path><path d="M79.73,274.75a3.25,3.25,0,0,0,.12.35c.09.26.21.6.37,1,.34.93.83,2.25,1.46,3.94s1.41,3.81,2.29,6.25l1.41,3.9c.48,1.39,1,2.86,1.52,4.4,2.15,6.16,4.54,13.56,7.13,21.79s5.2,17.35,7.82,26.95,4.88,18.83,6.83,27.24,3.53,16,4.7,22.43c.31,1.6.59,3.13.87,4.57s.47,2.82.69,4.1c.44,2.55.82,4.75,1.07,6.56s.49,3.18.64,4.15c.08.46.13.82.18,1.08s.07.37.07.37a2.06,2.06,0,0,0,0-.37c0-.27-.08-.63-.14-1.09-.13-1-.31-2.38-.55-4.17s-.58-4-1-6.58c-.21-1.28-.43-2.65-.66-4.1l-.83-4.58c-1.14-6.43-2.74-14-4.61-22.47s-4.21-17.63-6.8-27.26-5.3-18.71-7.86-27-5-15.62-7.23-21.76c-.55-1.54-1.06-3-1.55-4.4s-1-2.67-1.45-3.89c-.9-2.43-1.68-4.53-2.36-6.22s-1.18-3-1.55-3.91c-.17-.43-.31-.76-.41-1A2.17,2.17,0,0,0,79.73,274.75Z" style="fill:#263238"></path><path d="M146.55,309.54l-.21.2-.58.61c-.51.54-1.24,1.35-2.16,2.42a85.15,85.15,0,0,0-7.16,9.55,64,64,0,0,0-7.49,16c-2,6.37-3.26,13.62-4.5,21.2-2.47,15.17-5.5,28.75-7.7,38.58l-2.64,11.63c-.3,1.35-.53,2.42-.7,3.17-.07.34-.12.61-.17.83a1.44,1.44,0,0,0,0,.28,1.1,1.1,0,0,0,.09-.27c0-.21.12-.48.21-.82l.79-3.15c.66-2.77,1.61-6.72,2.78-11.6,2.28-9.81,5.37-23.39,7.84-38.57,1.24-7.58,2.47-14.81,4.45-21.16a64.6,64.6,0,0,1,7.35-16,92.47,92.47,0,0,1,7-9.61c.89-1.09,1.61-1.91,2.09-2.47l.55-.65C146.5,309.63,146.56,309.55,146.55,309.54Z" style="fill:#263238"></path><path d="M77.92,371.48a1.59,1.59,0,0,0,.44.08l1.26.14.91.09,1.07.16c.78.11,1.66.23,2.62.44l1.51.3,1.61.41c1.13.25,2.29.67,3.53,1a52.64,52.64,0,0,1,7.71,3.39,43.83,43.83,0,0,1,6.9,4.8,32.51,32.51,0,0,1,2.65,2.55,28.86,28.86,0,0,1,2.1,2.41c.64.74,1.09,1.51,1.55,2.14a16.24,16.24,0,0,1,1.06,1.7l.65,1.08a1.71,1.71,0,0,0,.25.37s0-.15-.17-.41-.34-.68-.57-1.13a14.87,14.87,0,0,0-1-1.75,25.08,25.08,0,0,0-1.51-2.2,26.84,26.84,0,0,0-2.08-2.48,32.82,32.82,0,0,0-2.65-2.6,41.91,41.91,0,0,0-7-4.88,50.42,50.42,0,0,0-7.79-3.4c-1.26-.36-2.43-.76-3.57-1l-1.64-.39-1.53-.27c-1-.2-1.85-.29-2.63-.38l-1.09-.12-.92-.05-1.27,0A1.35,1.35,0,0,0,77.92,371.48Z" style="fill:#263238"></path><path d="M74.46,309.84a6.57,6.57,0,0,0,.87.84l2.51,2.17c2.12,1.82,5.08,4.31,8.37,7s6.28,5.18,8.46,6.93l2.6,2.06a5.37,5.37,0,0,0,1,.7,6.36,6.36,0,0,0-.88-.84l-2.5-2.17c-2.13-1.82-5.09-4.31-8.37-7s-6.28-5.18-8.46-6.93l-2.6-2.06A5.37,5.37,0,0,0,74.46,309.84Z" style="fill:#263238"></path><path d="M71.47,325.93c0,.12,6.35,2.12,14.26,4.45s14.36,4.14,14.4,4-6.35-2.12-14.27-4.46S71.5,325.8,71.47,325.93Z" style="fill:#263238"></path><path d="M95.05,319.52a5,5,0,0,0,.66-.92L97.39,316c1.43-2.16,3.46-5.11,5.86-8.25s4.71-5.87,6.41-7.82l2-2.31a5.28,5.28,0,0,0,.71-.88,5.17,5.17,0,0,0-.84.76c-.52.5-1.25,1.26-2.14,2.21-1.76,1.9-4.12,4.61-6.53,7.76s-4.4,6.14-5.76,8.35c-.68,1.11-1.22,2-1.57,2.65A5,5,0,0,0,95.05,319.52Z" style="fill:#263238"></path><path d="M117.23,328.45a22.71,22.71,0,0,0,1.5,2.47c1,1.5,2.25,3.58,3.59,5.94s2.47,4.53,3.27,6.12a21,21,0,0,0,1.36,2.55,15.83,15.83,0,0,0-1.06-2.69c-.73-1.63-1.82-3.84-3.16-6.21s-2.7-4.44-3.73-5.9A14.88,14.88,0,0,0,117.23,328.45Z" style="fill:#263238"></path><path d="M124.82,356.29c0,.06,1.25-.53,3.25-1.43s4.78-2.07,7.92-3.18,6.06-1.92,8.18-2.46,3.44-.83,3.43-.9a3.07,3.07,0,0,0-.95.1c-.61.09-1.48.25-2.56.48a70.84,70.84,0,0,0-8.25,2.35,69.93,69.93,0,0,0-7.91,3.31c-1,.49-1.77.91-2.3,1.21A3.89,3.89,0,0,0,124.82,356.29Z" style="fill:#263238"></path><path d="M118.85,389.57a1.49,1.49,0,0,0,.39.13l1.15.29,4.25,1a142.09,142.09,0,0,1,13.87,3.67,61.24,61.24,0,0,1,13,6.08c1.55,1,2.75,1.85,3.56,2.48a13.42,13.42,0,0,0,1.29.95,1.83,1.83,0,0,0-.28-.3c-.21-.18-.49-.46-.89-.79a38.77,38.77,0,0,0-3.5-2.62,56.84,56.84,0,0,0-13-6.24,114.4,114.4,0,0,0-14-3.55l-4.28-.83A11,11,0,0,0,118.85,389.57Z" style="fill:#263238"></path><path d="M97.24,397.77c.13,0,.89-4.46,1.7-10s1.37-10.05,1.24-10.07-.89,4.46-1.7,10S97.11,397.75,97.24,397.77Z" style="fill:#263238"></path><path d="M74.75,389.6a22.94,22.94,0,0,0,2-2.41c1.22-1.51,2.9-3.59,4.81-5.86s3.67-4.28,5-5.74a24.19,24.19,0,0,0,2-2.41s-.25.17-.64.55-1,.93-1.62,1.63c-1.35,1.41-3.16,3.4-5.07,5.67s-3.55,4.4-4.71,6c-.57.79-1,1.43-1.33,1.88A2.82,2.82,0,0,0,74.75,389.6Z" style="fill:#263238"></path><polygon points="134.28 410.46 134.28 421.58 131.5 421.58 121.62 452.76 99.71 452.76 90.14 421.89 86.43 421.58 86.43 410.46 134.28 410.46" style="fill:#455a64"></polygon><path d="M88.28,421.89c0,.13,9.68.23,21.61.23s21.61-.1,21.61-.23-9.68-.23-21.61-.23S88.28,421.76,88.28,421.89Z" style="fill:#263238"></path><path d="M72.53,350.39a7,7,0,0,0,1.4.38l3.85.93c3.24.8,7.69,2,12.52,3.64s9.11,3.35,12.17,4.67l3.63,1.58a8.26,8.26,0,0,0,1.35.55,9,9,0,0,0-1.27-.71c-.83-.43-2.05-1-3.57-1.72a125.24,125.24,0,0,0-12.17-4.81,127.08,127.08,0,0,0-12.59-3.52c-1.63-.36-3-.63-3.88-.78A9.81,9.81,0,0,0,72.53,350.39Z" style="fill:#263238"></path><path d="M95.56,439.2c0,.13,6.79.24,15.16.24s15.16-.11,15.16-.24-6.79-.23-15.16-.23S95.56,439.08,95.56,439.2Z" style="fill:#fafafa"></path><path d="M94.71,436.63c0,.12,7.19.23,16.06.23s16.07-.11,16.07-.23-7.2-.24-16.07-.24S94.71,436.5,94.71,436.63Z" style="fill:#fafafa"></path></g></svg>