<svg xmlns="http://www.w3.org/2000/svg" xmlns:xlink="http://www.w3.org/1999/xlink" viewBox="0 0 500 500"><defs><clipPath id="freepik--clip-path--inject-59"><path d="M144.23,420.82l12.62,37.86a5.15,5.15,0,0,0,4.89,3.52h19.67a5.14,5.14,0,0,0,4.73-3.11l8.8-20.42" style="fill:#92E3A9;stroke:#263238;stroke-linecap:round;stroke-linejoin:round"></path></clipPath><clipPath id="freepik--clip-path-2--inject-59"><path d="M280.94,420.82l-12.62,37.86a5.15,5.15,0,0,1-4.89,3.52H243.76a5.14,5.14,0,0,1-4.73-3.11l-8.8-20.42" style="fill:#92E3A9;stroke:#263238;stroke-linecap:round;stroke-linejoin:round"></path></clipPath><clipPath id="freepik--clip-path-3--inject-59"><ellipse cx="213.5" cy="347.63" rx="108.17" ry="98.1" style="fill:#92E3A9;stroke:#263238;stroke-linecap:round;stroke-linejoin:round"></ellipse></clipPath><clipPath id="freepik--clip-path-4--inject-59"><path d="M179.76,433l11,26.1a5.16,5.16,0,0,0,4.75,3.15h20a5.17,5.17,0,0,0,4.73-3.1l12-27.73-.52,0" style="fill:#92E3A9;stroke:#263238;stroke-linecap:round;stroke-linejoin:round"></path></clipPath><clipPath id="freepik--clip-path-5--inject-59"><path d="M379,26.44l-55.31,79.69s-4.73,11.28-10.55,19.65S291,142.52,291,142.52s-1.45,15.64-6.18,21.1-14.92,2.19-14.92,2.19-4.37,4.73-9.1,6.91-19.28-5.82-19.28-5.82,13.09,14.19,14.91,18.92,5.1,8.73-.72,13.1-12.38-1.82-12.38-1.82,2.92,9.46-5.45,11.28S220.39,192,216.75,185.82s-14.19-29.48-16-30.57-4.36-6.91-.72-12.37S229.49,102.49,232.4,100,291,84.3,291,84.3l21.11-58.22" style="fill:#fff;stroke:#263238;stroke-linecap:round;stroke-linejoin:round"></path></clipPath><clipPath id="freepik--clip-path-6--inject-59"><path d="M222.57,129.05s4.37,6.55,5.1,12.38a21.16,21.16,0,0,1-3.28,14.19c-2.18,3.27-4.36,6.18-6.18,11.28s-2.18,12.37-4.73,16-4,7.27-.37,10.55,13.1,2.91,18.2-6.55,8.37-19.65,11.64-23.29,13.83-12,13.83-12,28.74-4,34.2-9.09,10.19-18.92,10.19-18.92" style="fill:#fff;stroke:#263238;stroke-linecap:round;stroke-linejoin:round"></path></clipPath></defs><g id="freepik--background-simple--inject-59"><path d="M165.19,59.92S89.42,98.52,51.63,158,16.83,294,62.75,350.8s133.69,49.34,207.18,85.32,154.57,28.57,189.32-47.66S441.6,283.74,432.6,195.52,344.07-21.88,165.19,59.92Z" style="fill:#92E3A9"></path><path d="M165.19,59.92S89.42,98.52,51.63,158,16.83,294,62.75,350.8s133.69,49.34,207.18,85.32,154.57,28.57,189.32-47.66S441.6,283.74,432.6,195.52,344.07-21.88,165.19,59.92Z" style="fill:#fff;opacity:0.7000000000000001"></path></g><g id="freepik--Plants--inject-59"><path d="M388.25,405.73S345.67,331,355.5,311.94s34.93,15.21,34.93,15.21S368.6,257.45,380.61,227s32.75,0,33.84,21.55-4.37,58.3-4.37,58.3,8.74-76,29.48-53.23-26.2,98.85-26.2,98.85,31.66-17.74,30.56,5.07-38.2,43.09-38.2,43.09" style="fill:#92E3A9"></path><path d="M388.61,391.79s-39.4-36.76-20.2-53.23,29.3,17.74,29.3,17.74-21.22-105.19,13.13-109,9.09,91.25,9.09,91.25S449.23,298,447.21,331s-45.46,60.84-45.46,60.84" style="fill:none;stroke:#263238;stroke-miterlimit:10"></path><line x1="407.96" y1="385.1" x2="381.34" y2="356.25" style="fill:none;stroke:#263238;stroke-miterlimit:10"></line><line x1="402.42" y1="387.32" x2="409.63" y2="302.99" style="fill:none;stroke:#263238;stroke-miterlimit:10"></line><line x1="401.31" y1="381.21" x2="425.16" y2="349.59" style="fill:none;stroke:#263238;stroke-miterlimit:10"></line><polygon points="435.81 375.33 362.16 375.33 369.53 462.2 428.44 462.2 435.81 375.33" style="fill:#263238"></polygon></g></svg>